<svg width="692" height="236" viewBox="0 0 692 236" fill="none" xmlns="http://www.w3.org/2000/svg">
<path d="M117.971 0C183.124 0 235.941 52.8173 235.941 117.971C235.941 183.124 183.124 235.941 117.971 235.941C52.8173 235.941 0 183.124 0 117.971C8.65892e-05 52.8173 52.8173 8.66117e-05 117.971 0ZM46.7285 53.0703C46.0124 53.1079 45.3138 53.3075 44.6865 53.6543C44.0591 54.0012 43.5182 54.4861 43.1064 55.0723C42.7369 55.655 41.4815 57.8831 46.0967 67.1104C48.067 71.2371 50.4859 75.1351 53.3096 78.7344C55.9471 82.0423 58.8416 85.1376 61.9668 87.9912C67.757 93.4087 69.357 93.8184 71.6553 97.248C73.6174 100.198 74.327 102.699 75.3506 106.509C76.7843 111.742 77.4344 116.913 77.6191 129.035C77.7004 134.305 77.6603 138.709 77.5938 142.5C77.409 152.937 76.9912 160.054 77.4014 170.483C77.7709 179.703 78.4914 184.225 81.5508 185.763C82.2675 186.118 83.0553 186.308 83.8555 186.317C84.6558 186.327 85.4487 186.156 86.1738 185.818C88.6566 184.553 89.1078 181.149 89.6768 176.355C89.8283 175.09 90.1788 171.708 89.7021 162.341C89.5359 159.022 89.4514 158.675 89.2666 155.355C88.9304 149.326 88.8969 144.919 88.8525 141.983C88.5865 120.807 87.6369 118.38 88.9561 109.783C90.0793 102.401 91.6752 98.5503 93.6963 95.3936C94.4833 94.1692 94.414 94.4899 99.8828 87.8848C101.457 85.9854 104.745 81.9834 108.584 77.1006C110.986 74.036 112.649 71.8458 114.519 69.0615C114.711 68.7702 115.816 66.9147 118.021 63.1973C119.326 60.9845 119.984 59.8778 120.188 58.2588C120.276 57.5392 120.619 54.8076 119.156 53.7344C117.693 52.6612 115.413 53.7335 114.312 54.2461C110.424 56.031 108.729 58.886 102.976 67.4121C98.5414 73.9914 99.5126 72.347 97.2031 75.8506C95.9949 77.6945 94.4357 80.0879 92.0488 83.1523C89.4069 86.5414 88.4422 87.2757 88.0283 87.5781C87.0972 88.253 83.9641 90.528 80.0918 90.0488C79.2678 89.9419 77.4787 89.5954 74.3193 87.0654C71.5482 84.8527 69.7629 82.5774 65.8203 76.6289C62.0425 70.9493 59.4151 66.735 59.3916 66.6973C57.5789 63.6565 55.5483 60.7501 53.3164 58.001C49.9911 53.9446 48.3727 53.0004 46.7285 53.0703ZM147.662 53.0752C146.951 53.1048 145.005 53.2756 141.675 55.3418C135.906 58.9273 132.876 63.9432 131.766 65.8584C129.357 70.0393 127.602 75.2077 124.335 85.4512C122.64 90.7559 121.322 95.2662 119.842 100.238C118.599 104.445 117.54 107.938 116.489 111.838C115.875 114.119 111.587 130.126 108.438 146.073C107.446 151.108 106.802 154.931 106.361 157.566C105.351 163.614 105.455 164.398 104.645 169.551C103.187 178.837 101.787 183.472 103.948 185.229C104.607 185.736 105.388 186.06 106.213 186.171C106.916 186.388 107.672 186.363 108.359 186.101C110.794 185.099 111.035 180.593 111.131 179.114C111.268 176.989 113.388 164.727 117.633 140.195C118.943 132.61 121.193 122.448 122 118.803C122.673 115.768 123.413 112.54 124.242 109.084C124.251 109.046 126.524 99.5484 131.609 83.7881C134.851 73.807 138.245 64.4026 144.843 61.9775C145.653 61.6966 147.555 61.0235 149.683 61.6074C152.247 62.3098 153.909 64.4946 156.443 69.3926C158.476 73.2406 160.22 77.2347 161.661 81.3408C163.558 87.1749 165.065 93.1284 166.172 99.1621C167.381 104.628 168.649 110.157 169.977 115.749C171.257 121.124 172.559 126.422 173.884 131.645C175.945 141.574 178.991 153.777 185.566 178.053C186.121 180.086 187.273 184.489 190.192 185.262C190.31 185.292 191.962 185.701 193.071 184.862C195.665 182.929 193.326 175.979 190.255 165.677C189.045 161.662 186.825 154.125 184.604 145.589C182.995 139.404 180.507 129.261 178.657 121.716L178.628 121.586C177.026 115.087 175.586 109.653 173.447 101.812C170.768 91.991 171.194 93.7944 170.221 90.0762C168.8 84.631 168.274 82.2129 166.86 77.4072C165.554 72.9678 164.874 70.6942 163.764 68.1289C162.065 64.2215 160.736 61.1859 157.775 58.2285C155.936 56.4023 152.395 52.8645 147.662 53.0752ZM81.7803 49.1133C80.9621 48.976 78.779 48.6097 76.8096 49.7334C74.5027 51.05 73.9021 53.5898 73.7744 54.1318C72.9228 57.7409 74.9452 61.7653 78.168 63.5977C78.7647 63.939 80.9933 65.2043 83.6943 64.5664C87.6485 63.6316 88.9692 59.484 89.0518 59.2021C89.4856 57.7674 89.4856 56.2385 89.0518 54.8037C88.6461 53.4899 87.8854 52.3095 86.8525 51.3906C86.3065 50.9052 85.6896 50.5037 85.0225 50.2002L83.7119 49.6699C83.0922 49.4119 82.4438 49.2251 81.7803 49.1133Z" fill="#2E241F"/>
<mask id="path-2-outside-1_54_12" maskUnits="userSpaceOnUse" x="254.277" y="14.5701" width="438" height="206" fill="black">
<rect fill="white" x="254.277" y="14.5701" width="438" height="206"/>
<path d="M375.344 113.815C373.647 113.533 370.819 113.533 369.405 113.533C366.294 113.533 363.183 113.815 360.073 113.815H357.81C356.679 113.251 356.396 112.122 356.396 110.711C356.396 107.041 365.163 107.041 368.556 107.041H369.122C377.323 107.041 385.807 107.606 394.291 107.606C395.988 107.606 397.119 109.017 397.119 110.711V111.84C397.119 112.122 396.836 112.404 396.836 112.404C395.422 114.098 394.856 114.38 392.877 114.38H392.028C392.028 114.662 392.311 114.662 392.311 114.944V147.402C392.311 147.685 392.028 148.814 392.028 149.096V149.66C392.028 149.943 392.311 150.789 392.311 150.789V154.458C392.311 159.257 392.028 164.055 391.746 168.853C391.18 176.756 391.463 184.659 390.897 192.844C390.897 195.102 388.918 196.795 387.504 198.488C380.434 206.109 373.93 209.496 364.032 212.318L352.154 215.988C347.63 216.834 342.539 217.117 337.732 217.117C328.4 217.117 319.067 216.27 309.735 213.447C305.211 212.036 299.555 210.061 295.878 207.238C295.595 207.238 294.464 206.109 294.182 205.827C291.354 203.287 289.94 201.311 286.829 199.617C286.263 199.053 285.98 198.206 285.415 197.36C282.87 193.69 279.759 190.586 276.931 186.916C276.648 186.634 274.669 184.376 274.669 184.094L274.386 183.812C270.427 176.191 265.619 169.7 262.791 161.515L261.377 156.716C260.246 151.072 258.832 145.427 257.984 140.064C257.135 133.008 257.418 125.387 257.418 118.331C257.418 111.84 256.853 105.066 257.984 99.1386C258.267 98.5741 259.398 95.7517 259.398 95.1872C259.398 94.3405 260.246 90.1068 260.246 89.2601C261.377 88.4134 260.812 87.8489 261.377 86.4376C264.205 77.4058 268.447 66.9628 274.103 59.3422C275.8 57.0843 276.931 53.9796 279.193 51.7216C280.042 50.3104 282.87 48.6169 284.001 46.9235C284.001 46.9235 284.567 46.0768 284.849 45.7945C286.829 42.6898 291.354 36.7627 295.03 35.916C299.555 31.9646 305.776 27.4487 311.432 25.1907C311.432 24.9085 313.977 24.344 314.26 24.344C321.895 21.8038 330.945 18.9813 339.146 18.4169H342.822C343.388 18.4169 345.65 17.5701 346.216 17.5701H346.498C359.507 17.5701 377.04 22.3683 388.352 28.8599C390.614 31.6823 395.988 32.2468 395.988 36.1982C395.988 38.1739 394.291 39.8674 392.594 39.8674C389.2 39.8674 386.372 36.4805 383.827 34.787C373.93 28.2954 358.093 25.1907 346.498 25.1907H340.56C337.166 26.0374 333.207 26.0374 329.531 26.8842C325.289 27.7309 321.047 29.9889 316.522 30.2711L316.239 30.5534C312.563 32.5291 308.604 34.2225 305.211 36.4805C301.817 38.7384 298.706 41.8431 295.595 44.3833C293.899 45.7945 291.354 47.2057 289.94 48.8992C279.193 63.2936 270.144 78.2526 265.902 96.3162C265.619 99.1386 264.205 102.243 264.205 105.348V123.412C265.619 128.21 264.771 135.266 265.054 139.782C265.336 143.169 265.902 146.273 267.033 149.378V150.225C267.882 152.765 267.599 156.434 268.447 158.974C268.447 159.539 270.144 161.515 270.427 161.797C272.124 165.184 272.689 169.417 275.8 171.958C277.779 175.344 279.476 179.578 282.304 182.683L287.112 189.457C289.657 192.279 291.919 193.973 294.464 196.513C297.575 199.335 300.403 202.158 304.079 204.133C306.342 205.545 308.887 205.827 311.432 206.391C319.35 208.649 327.551 210.343 336.035 210.343H340.56C342.257 209.496 342.539 210.343 344.802 210.06C349.609 209.214 353.003 207.238 357.527 206.391C360.921 205.545 371.102 203.851 373.93 201.029L382.979 192.279C384.676 190.586 384.11 186.07 384.11 183.812C384.676 171.675 385.524 159.539 385.524 147.402C385.524 137.806 384.676 128.492 384.676 118.896C384.676 118.049 384.959 115.791 385.524 114.38C382.131 114.098 378.737 113.815 375.344 113.815Z"/>
<path d="M412.909 51.1571C416.585 42.9721 417.716 38.7384 423.655 33.658C426.483 30.5534 429.876 28.2954 433.836 26.3197C456.459 13.0542 482.759 21.8038 496.05 49.7459C497.181 52.2861 496.616 55.6731 497.747 59.06V70.0675C496.899 73.4544 496.616 76.5591 496.05 79.6638C493.788 87.8489 487.849 97.7274 480.779 101.679C473.427 105.912 464.377 107.888 455.045 108.735C445.43 107.888 436.098 105.912 428.745 101.679C421.675 97.7274 415.737 87.8489 413.474 79.6638C412.909 76.5591 412.626 73.4544 411.778 70.0675V59.06L412.626 57.0843C412.06 55.3908 412.06 53.4151 412.909 51.1571ZM471.164 30.8356C465.791 28.5776 460.418 27.1664 454.762 26.3197C449.106 27.1664 443.733 28.5776 438.36 30.8356C435.532 32.2468 433.27 34.5048 430.159 35.916L425.352 41.5609C424.503 43.8188 422.241 45.5123 421.11 47.488C420.261 49.7459 419.696 51.7216 419.13 53.6973C419.13 55.1086 418.847 56.2375 417.999 57.6488V57.931C417.716 60.4712 417.433 63.0114 417.433 65.8338C417.433 69.2208 417.716 70.9142 418.565 74.0189C422.241 84.7442 424.786 89.8246 433.27 96.3162C436.663 98.2919 441.188 99.9854 444.582 101.114C447.975 101.679 451.086 101.961 454.48 102.243C458.156 101.961 461.267 101.679 464.943 101.114C468.336 99.9854 472.861 98.2919 476.255 96.3162C484.739 89.8246 487.284 84.7442 490.96 74.0189C491.808 70.9142 492.091 69.2208 492.091 65.8338C492.091 59.3422 490.96 53.6973 488.415 47.488C487.284 45.5123 485.021 43.8188 484.173 41.5609L479.365 35.916C476.255 34.5048 473.992 32.2468 471.164 30.8356ZM448.541 209.214C448.541 206.109 451.369 203.569 455.045 203.569C458.721 203.569 461.549 206.109 461.549 209.214C461.549 212.318 458.721 214.859 455.045 214.859C451.369 214.859 448.541 212.318 448.541 209.214Z"/>
<path d="M551.39 211.189L551.107 119.46C549.41 116.073 547.713 112.686 546.582 108.735C546.582 108.17 545.168 104.501 544.885 103.937C543.471 99.9854 540.926 96.8807 539.229 92.647L535.27 81.3572C525.938 67.8095 523.676 47.2057 511.516 27.1664C510.667 25.1907 509.819 24.0617 509.536 22.086C509.253 20.6748 509.253 19.8281 510.102 18.9813H511.798C512.93 18.9813 514.344 18.6991 515.192 19.8281C516.606 21.2393 517.737 24.9085 518.303 26.0374C519.434 28.8599 520.282 29.1421 521.131 31.4001C521.979 33.9403 522.545 37.3272 523.959 39.5852C523.959 39.8674 524.807 41.8431 524.807 41.8431C526.504 44.9478 527.352 48.0525 529.332 51.4394L540.643 78.8171C542.34 82.7685 543.754 88.1311 546.582 91.8003L555.066 110.993C557.611 104.501 560.439 98.2919 563.55 91.8003C566.378 88.1311 567.792 82.7685 569.488 78.8171L580.8 51.4394C582.78 48.0525 583.628 44.9478 585.325 41.8431C585.325 41.8431 586.173 39.8674 586.173 39.5852C587.587 37.3272 588.153 33.9403 589.001 31.4001C589.85 29.1421 590.698 28.8599 591.829 26.0374C592.395 24.9085 593.526 21.2393 594.94 19.8281C595.788 18.6991 597.202 18.9813 598.333 18.9813H600.03C600.879 19.8281 600.879 20.6748 600.596 22.086C600.313 24.0617 599.465 25.1907 598.616 27.1664C586.456 47.2057 584.194 67.8095 574.862 81.3572L570.902 92.647C569.206 96.8807 566.661 99.9854 565.247 103.937C564.964 104.501 563.55 108.17 563.55 108.735L558.742 119.46V207.52C558.742 208.367 558.459 211.472 558.177 212.318C557.894 213.447 557.328 215.141 555.914 215.141C554.783 215.141 553.935 214.576 553.086 213.447C552.521 212.883 551.39 211.189 551.39 211.189Z"/>
<path d="M656.196 109.017L654.499 104.219L653.085 103.372H619.715L618.301 107.606V110.711C615.473 121.718 612.646 133.008 609.535 144.015C607.555 147.685 606.99 152.765 605.858 156.716C603.596 165.466 601.617 174.216 598.789 183.247C597.657 186.352 597.375 189.457 596.526 192.561C596.526 192.561 595.678 194.255 595.678 194.537C594.829 196.795 594.547 200.182 594.264 202.44C593.698 204.698 593.133 204.98 592.284 207.803C592.002 208.932 591.436 212.318 590.588 213.73C589.739 214.859 588.325 214.576 587.194 214.576H585.497C584.366 213.73 584.083 212.883 584.083 211.472C584.083 209.778 584.932 208.649 585.497 206.674C593.981 187.199 592.85 167.159 599.92 154.176L602.182 143.169C603.313 139.217 605.01 136.113 605.858 132.161C606.141 131.597 606.707 128.21 606.707 127.645C608.121 121.154 610.1 114.944 611.797 108.453C612.646 103.09 613.211 98.0097 614.625 92.9293C616.322 85.8732 618.867 78.8171 620.564 71.761C620.847 70.632 621.978 66.1161 622.543 65.2693C623.392 63.0114 624.523 60.189 625.088 57.931C627.068 48.8992 629.33 39.8674 632.158 31.1178C632.724 29.1421 632.441 26.8842 633.572 25.1907C634.138 23.7795 635.552 22.6505 637.249 22.6505C640.925 22.6505 640.077 26.8842 640.642 29.1421C640.925 29.4244 641.773 31.9646 641.773 32.5291C643.187 38.1739 644.036 43.8188 645.45 49.4637C646.864 55.3908 649.409 60.4712 650.823 66.1161C652.802 74.0189 654.216 82.7685 657.044 90.3891L659.024 94.6227C659.872 96.8807 660.155 99.9854 660.438 102.243V102.808C661.003 105.63 662.417 108.735 662.983 111.557C662.983 112.122 664.397 117.484 664.68 117.767C664.68 118.049 665.528 119.742 665.528 120.025C665.528 120.307 665.811 122.565 666.094 122.847C666.094 123.412 667.508 127.081 667.79 127.645C668.073 129.056 667.79 131.314 668.922 132.726L670.618 140.628C670.618 140.628 670.618 142.322 670.901 142.604C670.901 142.886 672.032 144.862 672.032 145.427C672.598 148.249 672.598 151.354 673.729 154.458L675.426 158.974C676.84 166.03 678.819 173.087 680.233 180.425C682.213 184.941 682.213 188.892 683.344 193.973C684.193 196.231 685.606 198.206 685.889 200.182C686.738 204.133 687.586 206.674 689 210.907V211.472C689 213.73 687.869 214.576 685.889 214.576C682.496 214.576 681.93 212.601 681.082 209.778C681.082 209.496 680.799 209.496 680.799 209.214C680.799 209.214 680.516 208.932 680.516 208.649C680.516 208.085 679.668 204.416 679.668 203.851C676.84 195.102 674.86 186.352 672.598 177.038C672.598 176.473 671.467 172.804 671.184 171.675C670.618 169.417 670.618 166.313 669.204 164.619C668.356 159.821 666.942 156.152 666.094 151.636C665.811 151.354 665.528 148.531 665.528 148.249C664.397 142.604 662.417 137.242 661.286 131.597L659.872 122.847C657.61 119.46 657.327 112.969 656.196 109.017ZM620.847 96.0339V96.3162H651.954L652.237 96.0339C652.237 95.7517 651.954 95.1872 651.954 94.3405C651.106 91.8003 649.692 88.9778 649.126 86.4376C647.429 79.6638 645.732 73.7367 643.753 67.2451C641.773 61.3179 639.794 55.1086 638.38 48.8992C637.814 46.9235 638.097 43.2543 636.966 41.5609L636.117 42.4076L634.704 46.359C634.421 46.359 633.855 48.3347 633.572 48.6169V50.8749C633.007 54.5441 631.876 59.06 630.744 63.0114C627.916 70.632 625.088 78.5348 623.392 86.7199L621.978 90.9535C621.978 91.8003 621.978 92.0825 621.695 92.9293L620.847 96.0339Z"/>
</mask>
<path d="M375.344 113.815C373.647 113.533 370.819 113.533 369.405 113.533C366.294 113.533 363.183 113.815 360.073 113.815H357.81C356.679 113.251 356.396 112.122 356.396 110.711C356.396 107.041 365.163 107.041 368.556 107.041H369.122C377.323 107.041 385.807 107.606 394.291 107.606C395.988 107.606 397.119 109.017 397.119 110.711V111.84C397.119 112.122 396.836 112.404 396.836 112.404C395.422 114.098 394.856 114.38 392.877 114.38H392.028C392.028 114.662 392.311 114.662 392.311 114.944V147.402C392.311 147.685 392.028 148.814 392.028 149.096V149.66C392.028 149.943 392.311 150.789 392.311 150.789V154.458C392.311 159.257 392.028 164.055 391.746 168.853C391.18 176.756 391.463 184.659 390.897 192.844C390.897 195.102 388.918 196.795 387.504 198.488C380.434 206.109 373.93 209.496 364.032 212.318L352.154 215.988C347.63 216.834 342.539 217.117 337.732 217.117C328.4 217.117 319.067 216.27 309.735 213.447C305.211 212.036 299.555 210.061 295.878 207.238C295.595 207.238 294.464 206.109 294.182 205.827C291.354 203.287 289.94 201.311 286.829 199.617C286.263 199.053 285.98 198.206 285.415 197.36C282.87 193.69 279.759 190.586 276.931 186.916C276.648 186.634 274.669 184.376 274.669 184.094L274.386 183.812C270.427 176.191 265.619 169.7 262.791 161.515L261.377 156.716C260.246 151.072 258.832 145.427 257.984 140.064C257.135 133.008 257.418 125.387 257.418 118.331C257.418 111.84 256.853 105.066 257.984 99.1386C258.267 98.5741 259.398 95.7517 259.398 95.1872C259.398 94.3405 260.246 90.1068 260.246 89.2601C261.377 88.4134 260.812 87.8489 261.377 86.4376C264.205 77.4058 268.447 66.9628 274.103 59.3422C275.8 57.0843 276.931 53.9796 279.193 51.7216C280.042 50.3104 282.87 48.6169 284.001 46.9235C284.001 46.9235 284.567 46.0768 284.849 45.7945C286.829 42.6898 291.354 36.7627 295.03 35.916C299.555 31.9646 305.776 27.4487 311.432 25.1907C311.432 24.9085 313.977 24.344 314.26 24.344C321.895 21.8038 330.945 18.9813 339.146 18.4169H342.822C343.388 18.4169 345.65 17.5701 346.216 17.5701H346.498C359.507 17.5701 377.04 22.3683 388.352 28.8599C390.614 31.6823 395.988 32.2468 395.988 36.1982C395.988 38.1739 394.291 39.8674 392.594 39.8674C389.2 39.8674 386.372 36.4805 383.827 34.787C373.93 28.2954 358.093 25.1907 346.498 25.1907H340.56C337.166 26.0374 333.207 26.0374 329.531 26.8842C325.289 27.7309 321.047 29.9889 316.522 30.2711L316.239 30.5534C312.563 32.5291 308.604 34.2225 305.211 36.4805C301.817 38.7384 298.706 41.8431 295.595 44.3833C293.899 45.7945 291.354 47.2057 289.94 48.8992C279.193 63.2936 270.144 78.2526 265.902 96.3162C265.619 99.1386 264.205 102.243 264.205 105.348V123.412C265.619 128.21 264.771 135.266 265.054 139.782C265.336 143.169 265.902 146.273 267.033 149.378V150.225C267.882 152.765 267.599 156.434 268.447 158.974C268.447 159.539 270.144 161.515 270.427 161.797C272.124 165.184 272.689 169.417 275.8 171.958C277.779 175.344 279.476 179.578 282.304 182.683L287.112 189.457C289.657 192.279 291.919 193.973 294.464 196.513C297.575 199.335 300.403 202.158 304.079 204.133C306.342 205.545 308.887 205.827 311.432 206.391C319.35 208.649 327.551 210.343 336.035 210.343H340.56C342.257 209.496 342.539 210.343 344.802 210.06C349.609 209.214 353.003 207.238 357.527 206.391C360.921 205.545 371.102 203.851 373.93 201.029L382.979 192.279C384.676 190.586 384.11 186.07 384.11 183.812C384.676 171.675 385.524 159.539 385.524 147.402C385.524 137.806 384.676 128.492 384.676 118.896C384.676 118.049 384.959 115.791 385.524 114.38C382.131 114.098 378.737 113.815 375.344 113.815Z" fill="#2E241F"/>
<path d="M412.909 51.1571C416.585 42.9721 417.716 38.7384 423.655 33.658C426.483 30.5534 429.876 28.2954 433.836 26.3197C456.459 13.0542 482.759 21.8038 496.05 49.7459C497.181 52.2861 496.616 55.6731 497.747 59.06V70.0675C496.899 73.4544 496.616 76.5591 496.05 79.6638C493.788 87.8489 487.849 97.7274 480.779 101.679C473.427 105.912 464.377 107.888 455.045 108.735C445.43 107.888 436.098 105.912 428.745 101.679C421.675 97.7274 415.737 87.8489 413.474 79.6638C412.909 76.5591 412.626 73.4544 411.778 70.0675V59.06L412.626 57.0843C412.06 55.3908 412.06 53.4151 412.909 51.1571ZM471.164 30.8356C465.791 28.5776 460.418 27.1664 454.762 26.3197C449.106 27.1664 443.733 28.5776 438.36 30.8356C435.532 32.2468 433.27 34.5048 430.159 35.916L425.352 41.5609C424.503 43.8188 422.241 45.5123 421.11 47.488C420.261 49.7459 419.696 51.7216 419.13 53.6973C419.13 55.1086 418.847 56.2375 417.999 57.6488V57.931C417.716 60.4712 417.433 63.0114 417.433 65.8338C417.433 69.2208 417.716 70.9142 418.565 74.0189C422.241 84.7442 424.786 89.8246 433.27 96.3162C436.663 98.2919 441.188 99.9854 444.582 101.114C447.975 101.679 451.086 101.961 454.48 102.243C458.156 101.961 461.267 101.679 464.943 101.114C468.336 99.9854 472.861 98.2919 476.255 96.3162C484.739 89.8246 487.284 84.7442 490.96 74.0189C491.808 70.9142 492.091 69.2208 492.091 65.8338C492.091 59.3422 490.96 53.6973 488.415 47.488C487.284 45.5123 485.021 43.8188 484.173 41.5609L479.365 35.916C476.255 34.5048 473.992 32.2468 471.164 30.8356ZM448.541 209.214C448.541 206.109 451.369 203.569 455.045 203.569C458.721 203.569 461.549 206.109 461.549 209.214C461.549 212.318 458.721 214.859 455.045 214.859C451.369 214.859 448.541 212.318 448.541 209.214Z" fill="#2E241F"/>
<path d="M551.39 211.189L551.107 119.46C549.41 116.073 547.713 112.686 546.582 108.735C546.582 108.17 545.168 104.501 544.885 103.937C543.471 99.9854 540.926 96.8807 539.229 92.647L535.27 81.3572C525.938 67.8095 523.676 47.2057 511.516 27.1664C510.667 25.1907 509.819 24.0617 509.536 22.086C509.253 20.6748 509.253 19.8281 510.102 18.9813H511.798C512.93 18.9813 514.344 18.6991 515.192 19.8281C516.606 21.2393 517.737 24.9085 518.303 26.0374C519.434 28.8599 520.282 29.1421 521.131 31.4001C521.979 33.9403 522.545 37.3272 523.959 39.5852C523.959 39.8674 524.807 41.8431 524.807 41.8431C526.504 44.9478 527.352 48.0525 529.332 51.4394L540.643 78.8171C542.34 82.7685 543.754 88.1311 546.582 91.8003L555.066 110.993C557.611 104.501 560.439 98.2919 563.55 91.8003C566.378 88.1311 567.792 82.7685 569.488 78.8171L580.8 51.4394C582.78 48.0525 583.628 44.9478 585.325 41.8431C585.325 41.8431 586.173 39.8674 586.173 39.5852C587.587 37.3272 588.153 33.9403 589.001 31.4001C589.85 29.1421 590.698 28.8599 591.829 26.0374C592.395 24.9085 593.526 21.2393 594.94 19.8281C595.788 18.6991 597.202 18.9813 598.333 18.9813H600.03C600.879 19.8281 600.879 20.6748 600.596 22.086C600.313 24.0617 599.465 25.1907 598.616 27.1664C586.456 47.2057 584.194 67.8095 574.862 81.3572L570.902 92.647C569.206 96.8807 566.661 99.9854 565.247 103.937C564.964 104.501 563.55 108.17 563.55 108.735L558.742 119.46V207.52C558.742 208.367 558.459 211.472 558.177 212.318C557.894 213.447 557.328 215.141 555.914 215.141C554.783 215.141 553.935 214.576 553.086 213.447C552.521 212.883 551.39 211.189 551.39 211.189Z" fill="#2E241F"/>
<path d="M656.196 109.017L654.499 104.219L653.085 103.372H619.715L618.301 107.606V110.711C615.473 121.718 612.646 133.008 609.535 144.015C607.555 147.685 606.99 152.765 605.858 156.716C603.596 165.466 601.617 174.216 598.789 183.247C597.657 186.352 597.375 189.457 596.526 192.561C596.526 192.561 595.678 194.255 595.678 194.537C594.829 196.795 594.547 200.182 594.264 202.44C593.698 204.698 593.133 204.98 592.284 207.803C592.002 208.932 591.436 212.318 590.588 213.73C589.739 214.859 588.325 214.576 587.194 214.576H585.497C584.366 213.73 584.083 212.883 584.083 211.472C584.083 209.778 584.932 208.649 585.497 206.674C593.981 187.199 592.85 167.159 599.92 154.176L602.182 143.169C603.313 139.217 605.01 136.113 605.858 132.161C606.141 131.597 606.707 128.21 606.707 127.645C608.121 121.154 610.1 114.944 611.797 108.453C612.646 103.09 613.211 98.0097 614.625 92.9293C616.322 85.8732 618.867 78.8171 620.564 71.761C620.847 70.632 621.978 66.1161 622.543 65.2693C623.392 63.0114 624.523 60.189 625.088 57.931C627.068 48.8992 629.33 39.8674 632.158 31.1178C632.724 29.1421 632.441 26.8842 633.572 25.1907C634.138 23.7795 635.552 22.6505 637.249 22.6505C640.925 22.6505 640.077 26.8842 640.642 29.1421C640.925 29.4244 641.773 31.9646 641.773 32.5291C643.187 38.1739 644.036 43.8188 645.45 49.4637C646.864 55.3908 649.409 60.4712 650.823 66.1161C652.802 74.0189 654.216 82.7685 657.044 90.3891L659.024 94.6227C659.872 96.8807 660.155 99.9854 660.438 102.243V102.808C661.003 105.63 662.417 108.735 662.983 111.557C662.983 112.122 664.397 117.484 664.68 117.767C664.68 118.049 665.528 119.742 665.528 120.025C665.528 120.307 665.811 122.565 666.094 122.847C666.094 123.412 667.508 127.081 667.79 127.645C668.073 129.056 667.79 131.314 668.922 132.726L670.618 140.628C670.618 140.628 670.618 142.322 670.901 142.604C670.901 142.886 672.032 144.862 672.032 145.427C672.598 148.249 672.598 151.354 673.729 154.458L675.426 158.974C676.84 166.03 678.819 173.087 680.233 180.425C682.213 184.941 682.213 188.892 683.344 193.973C684.193 196.231 685.606 198.206 685.889 200.182C686.738 204.133 687.586 206.674 689 210.907V211.472C689 213.73 687.869 214.576 685.889 214.576C682.496 214.576 681.93 212.601 681.082 209.778C681.082 209.496 680.799 209.496 680.799 209.214C680.799 209.214 680.516 208.932 680.516 208.649C680.516 208.085 679.668 204.416 679.668 203.851C676.84 195.102 674.86 186.352 672.598 177.038C672.598 176.473 671.467 172.804 671.184 171.675C670.618 169.417 670.618 166.313 669.204 164.619C668.356 159.821 666.942 156.152 666.094 151.636C665.811 151.354 665.528 148.531 665.528 148.249C664.397 142.604 662.417 137.242 661.286 131.597L659.872 122.847C657.61 119.46 657.327 112.969 656.196 109.017ZM620.847 96.0339V96.3162H651.954L652.237 96.0339C652.237 95.7517 651.954 95.1872 651.954 94.3405C651.106 91.8003 649.692 88.9778 649.126 86.4376C647.429 79.6638 645.732 73.7367 643.753 67.2451C641.773 61.3179 639.794 55.1086 638.38 48.8992C637.814 46.9235 638.097 43.2543 636.966 41.5609L636.117 42.4076L634.704 46.359C634.421 46.359 633.855 48.3347 633.572 48.6169V50.8749C633.007 54.5441 631.876 59.06 630.744 63.0114C627.916 70.632 625.088 78.5348 623.392 86.7199L621.978 90.9535C621.978 91.8003 621.978 92.0825 621.695 92.9293L620.847 96.0339Z" fill="#2E241F"/>
<path d="M375.344 113.815C373.647 113.533 370.819 113.533 369.405 113.533C366.294 113.533 363.183 113.815 360.073 113.815H357.81C356.679 113.251 356.396 112.122 356.396 110.711C356.396 107.041 365.163 107.041 368.556 107.041H369.122C377.323 107.041 385.807 107.606 394.291 107.606C395.988 107.606 397.119 109.017 397.119 110.711V111.84C397.119 112.122 396.836 112.404 396.836 112.404C395.422 114.098 394.856 114.38 392.877 114.38H392.028C392.028 114.662 392.311 114.662 392.311 114.944V147.402C392.311 147.685 392.028 148.814 392.028 149.096V149.66C392.028 149.943 392.311 150.789 392.311 150.789V154.458C392.311 159.257 392.028 164.055 391.746 168.853C391.18 176.756 391.463 184.659 390.897 192.844C390.897 195.102 388.918 196.795 387.504 198.488C380.434 206.109 373.93 209.496 364.032 212.318L352.154 215.988C347.63 216.834 342.539 217.117 337.732 217.117C328.4 217.117 319.067 216.27 309.735 213.447C305.211 212.036 299.555 210.061 295.878 207.238C295.595 207.238 294.464 206.109 294.182 205.827C291.354 203.287 289.94 201.311 286.829 199.617C286.263 199.053 285.98 198.206 285.415 197.36C282.87 193.69 279.759 190.586 276.931 186.916C276.648 186.634 274.669 184.376 274.669 184.094L274.386 183.812C270.427 176.191 265.619 169.7 262.791 161.515L261.377 156.716C260.246 151.072 258.832 145.427 257.984 140.064C257.135 133.008 257.418 125.387 257.418 118.331C257.418 111.84 256.853 105.066 257.984 99.1386C258.267 98.5741 259.398 95.7517 259.398 95.1872C259.398 94.3405 260.246 90.1068 260.246 89.2601C261.377 88.4134 260.812 87.8489 261.377 86.4376C264.205 77.4058 268.447 66.9628 274.103 59.3422C275.8 57.0843 276.931 53.9796 279.193 51.7216C280.042 50.3104 282.87 48.6169 284.001 46.9235C284.001 46.9235 284.567 46.0768 284.849 45.7945C286.829 42.6898 291.354 36.7627 295.03 35.916C299.555 31.9646 305.776 27.4487 311.432 25.1907C311.432 24.9085 313.977 24.344 314.26 24.344C321.895 21.8038 330.945 18.9813 339.146 18.4169H342.822C343.388 18.4169 345.65 17.5701 346.216 17.5701H346.498C359.507 17.5701 377.04 22.3683 388.352 28.8599C390.614 31.6823 395.988 32.2468 395.988 36.1982C395.988 38.1739 394.291 39.8674 392.594 39.8674C389.2 39.8674 386.372 36.4805 383.827 34.787C373.93 28.2954 358.093 25.1907 346.498 25.1907H340.56C337.166 26.0374 333.207 26.0374 329.531 26.8842C325.289 27.7309 321.047 29.9889 316.522 30.2711L316.239 30.5534C312.563 32.5291 308.604 34.2225 305.211 36.4805C301.817 38.7384 298.706 41.8431 295.595 44.3833C293.899 45.7945 291.354 47.2057 289.94 48.8992C279.193 63.2936 270.144 78.2526 265.902 96.3162C265.619 99.1386 264.205 102.243 264.205 105.348V123.412C265.619 128.21 264.771 135.266 265.054 139.782C265.336 143.169 265.902 146.273 267.033 149.378V150.225C267.882 152.765 267.599 156.434 268.447 158.974C268.447 159.539 270.144 161.515 270.427 161.797C272.124 165.184 272.689 169.417 275.8 171.958C277.779 175.344 279.476 179.578 282.304 182.683L287.112 189.457C289.657 192.279 291.919 193.973 294.464 196.513C297.575 199.335 300.403 202.158 304.079 204.133C306.342 205.545 308.887 205.827 311.432 206.391C319.35 208.649 327.551 210.343 336.035 210.343H340.56C342.257 209.496 342.539 210.343 344.802 210.06C349.609 209.214 353.003 207.238 357.527 206.391C360.921 205.545 371.102 203.851 373.93 201.029L382.979 192.279C384.676 190.586 384.11 186.07 384.11 183.812C384.676 171.675 385.524 159.539 385.524 147.402C385.524 137.806 384.676 128.492 384.676 118.896C384.676 118.049 384.959 115.791 385.524 114.38C382.131 114.098 378.737 113.815 375.344 113.815Z" stroke="#2E241F" stroke-width="5.02004" mask="url(#path-2-outside-1_54_12)"/>
<path d="M412.909 51.1571C416.585 42.9721 417.716 38.7384 423.655 33.658C426.483 30.5534 429.876 28.2954 433.836 26.3197C456.459 13.0542 482.759 21.8038 496.05 49.7459C497.181 52.2861 496.616 55.6731 497.747 59.06V70.0675C496.899 73.4544 496.616 76.5591 496.05 79.6638C493.788 87.8489 487.849 97.7274 480.779 101.679C473.427 105.912 464.377 107.888 455.045 108.735C445.43 107.888 436.098 105.912 428.745 101.679C421.675 97.7274 415.737 87.8489 413.474 79.6638C412.909 76.5591 412.626 73.4544 411.778 70.0675V59.06L412.626 57.0843C412.06 55.3908 412.06 53.4151 412.909 51.1571ZM471.164 30.8356C465.791 28.5776 460.418 27.1664 454.762 26.3197C449.106 27.1664 443.733 28.5776 438.36 30.8356C435.532 32.2468 433.27 34.5048 430.159 35.916L425.352 41.5609C424.503 43.8188 422.241 45.5123 421.11 47.488C420.261 49.7459 419.696 51.7216 419.13 53.6973C419.13 55.1086 418.847 56.2375 417.999 57.6488V57.931C417.716 60.4712 417.433 63.0114 417.433 65.8338C417.433 69.2208 417.716 70.9142 418.565 74.0189C422.241 84.7442 424.786 89.8246 433.27 96.3162C436.663 98.2919 441.188 99.9854 444.582 101.114C447.975 101.679 451.086 101.961 454.48 102.243C458.156 101.961 461.267 101.679 464.943 101.114C468.336 99.9854 472.861 98.2919 476.255 96.3162C484.739 89.8246 487.284 84.7442 490.96 74.0189C491.808 70.9142 492.091 69.2208 492.091 65.8338C492.091 59.3422 490.96 53.6973 488.415 47.488C487.284 45.5123 485.021 43.8188 484.173 41.5609L479.365 35.916C476.255 34.5048 473.992 32.2468 471.164 30.8356ZM448.541 209.214C448.541 206.109 451.369 203.569 455.045 203.569C458.721 203.569 461.549 206.109 461.549 209.214C461.549 212.318 458.721 214.859 455.045 214.859C451.369 214.859 448.541 212.318 448.541 209.214Z" stroke="#2E241F" stroke-width="5.02004" mask="url(#path-2-outside-1_54_12)"/>
<path d="M551.39 211.189L551.107 119.46C549.41 116.073 547.713 112.686 546.582 108.735C546.582 108.17 545.168 104.501 544.885 103.937C543.471 99.9854 540.926 96.8807 539.229 92.647L535.27 81.3572C525.938 67.8095 523.676 47.2057 511.516 27.1664C510.667 25.1907 509.819 24.0617 509.536 22.086C509.253 20.6748 509.253 19.8281 510.102 18.9813H511.798C512.93 18.9813 514.344 18.6991 515.192 19.8281C516.606 21.2393 517.737 24.9085 518.303 26.0374C519.434 28.8599 520.282 29.1421 521.131 31.4001C521.979 33.9403 522.545 37.3272 523.959 39.5852C523.959 39.8674 524.807 41.8431 524.807 41.8431C526.504 44.9478 527.352 48.0525 529.332 51.4394L540.643 78.8171C542.34 82.7685 543.754 88.1311 546.582 91.8003L555.066 110.993C557.611 104.501 560.439 98.2919 563.55 91.8003C566.378 88.1311 567.792 82.7685 569.488 78.8171L580.8 51.4394C582.78 48.0525 583.628 44.9478 585.325 41.8431C585.325 41.8431 586.173 39.8674 586.173 39.5852C587.587 37.3272 588.153 33.9403 589.001 31.4001C589.85 29.1421 590.698 28.8599 591.829 26.0374C592.395 24.9085 593.526 21.2393 594.94 19.8281C595.788 18.6991 597.202 18.9813 598.333 18.9813H600.03C600.879 19.8281 600.879 20.6748 600.596 22.086C600.313 24.0617 599.465 25.1907 598.616 27.1664C586.456 47.2057 584.194 67.8095 574.862 81.3572L570.902 92.647C569.206 96.8807 566.661 99.9854 565.247 103.937C564.964 104.501 563.55 108.17 563.55 108.735L558.742 119.46V207.52C558.742 208.367 558.459 211.472 558.177 212.318C557.894 213.447 557.328 215.141 555.914 215.141C554.783 215.141 553.935 214.576 553.086 213.447C552.521 212.883 551.39 211.189 551.39 211.189Z" stroke="#2E241F" stroke-width="5.02004" mask="url(#path-2-outside-1_54_12)"/>
<path d="M656.196 109.017L654.499 104.219L653.085 103.372H619.715L618.301 107.606V110.711C615.473 121.718 612.646 133.008 609.535 144.015C607.555 147.685 606.99 152.765 605.858 156.716C603.596 165.466 601.617 174.216 598.789 183.247C597.657 186.352 597.375 189.457 596.526 192.561C596.526 192.561 595.678 194.255 595.678 194.537C594.829 196.795 594.547 200.182 594.264 202.44C593.698 204.698 593.133 204.98 592.284 207.803C592.002 208.932 591.436 212.318 590.588 213.73C589.739 214.859 588.325 214.576 587.194 214.576H585.497C584.366 213.73 584.083 212.883 584.083 211.472C584.083 209.778 584.932 208.649 585.497 206.674C593.981 187.199 592.85 167.159 599.92 154.176L602.182 143.169C603.313 139.217 605.01 136.113 605.858 132.161C606.141 131.597 606.707 128.21 606.707 127.645C608.121 121.154 610.1 114.944 611.797 108.453C612.646 103.09 613.211 98.0097 614.625 92.9293C616.322 85.8732 618.867 78.8171 620.564 71.761C620.847 70.632 621.978 66.1161 622.543 65.2693C623.392 63.0114 624.523 60.189 625.088 57.931C627.068 48.8992 629.33 39.8674 632.158 31.1178C632.724 29.1421 632.441 26.8842 633.572 25.1907C634.138 23.7795 635.552 22.6505 637.249 22.6505C640.925 22.6505 640.077 26.8842 640.642 29.1421C640.925 29.4244 641.773 31.9646 641.773 32.5291C643.187 38.1739 644.036 43.8188 645.45 49.4637C646.864 55.3908 649.409 60.4712 650.823 66.1161C652.802 74.0189 654.216 82.7685 657.044 90.3891L659.024 94.6227C659.872 96.8807 660.155 99.9854 660.438 102.243V102.808C661.003 105.63 662.417 108.735 662.983 111.557C662.983 112.122 664.397 117.484 664.68 117.767C664.68 118.049 665.528 119.742 665.528 120.025C665.528 120.307 665.811 122.565 666.094 122.847C666.094 123.412 667.508 127.081 667.79 127.645C668.073 129.056 667.79 131.314 668.922 132.726L670.618 140.628C670.618 140.628 670.618 142.322 670.901 142.604C670.901 142.886 672.032 144.862 672.032 145.427C672.598 148.249 672.598 151.354 673.729 154.458L675.426 158.974C676.84 166.03 678.819 173.087 680.233 180.425C682.213 184.941 682.213 188.892 683.344 193.973C684.193 196.231 685.606 198.206 685.889 200.182C686.738 204.133 687.586 206.674 689 210.907V211.472C689 213.73 687.869 214.576 685.889 214.576C682.496 214.576 681.93 212.601 681.082 209.778C681.082 209.496 680.799 209.496 680.799 209.214C680.799 209.214 680.516 208.932 680.516 208.649C680.516 208.085 679.668 204.416 679.668 203.851C676.84 195.102 674.86 186.352 672.598 177.038C672.598 176.473 671.467 172.804 671.184 171.675C670.618 169.417 670.618 166.313 669.204 164.619C668.356 159.821 666.942 156.152 666.094 151.636C665.811 151.354 665.528 148.531 665.528 148.249C664.397 142.604 662.417 137.242 661.286 131.597L659.872 122.847C657.61 119.46 657.327 112.969 656.196 109.017ZM620.847 96.0339V96.3162H651.954L652.237 96.0339C652.237 95.7517 651.954 95.1872 651.954 94.3405C651.106 91.8003 649.692 88.9778 649.126 86.4376C647.429 79.6638 645.732 73.7367 643.753 67.2451C641.773 61.3179 639.794 55.1086 638.38 48.8992C637.814 46.9235 638.097 43.2543 636.966 41.5609L636.117 42.4076L634.704 46.359C634.421 46.359 633.855 48.3347 633.572 48.6169V50.8749C633.007 54.5441 631.876 59.06 630.744 63.0114C627.916 70.632 625.088 78.5348 623.392 86.7199L621.978 90.9535C621.978 91.8003 621.978 92.0825 621.695 92.9293L620.847 96.0339Z" stroke="#2E241F" stroke-width="5.02004" mask="url(#path-2-outside-1_54_12)"/>
</svg>
