<svg width="406.25" height="191.5" viewBox="81 128 406.25 191.5" fill="none" xmlns="http://www.w3.org/2000/svg">
<path d="M167.263 129C179.402 129 195.435 133.277 206.306 139.198L207.341 139.776L207.823 140.052L208.171 140.485C208.384 140.75 208.756 141.061 209.412 141.469C209.732 141.667 210.076 141.862 210.471 142.085C210.848 142.298 211.286 142.543 211.709 142.8C213.296 143.761 215.864 145.561 215.864 149.078C215.864 150.833 215.116 152.381 214.076 153.473C213.054 154.547 211.541 155.392 209.796 155.392C207.265 155.392 205.191 154.14 203.729 153.075C202.976 152.527 202.255 151.928 201.659 151.439C201.032 150.925 200.541 150.532 200.099 150.237C191.617 144.69 177.639 141.887 167.263 141.887H162.118C160.445 142.271 158.698 142.47 157.122 142.647C155.358 142.846 153.769 143.026 152.265 143.371L152.181 143.389C150.448 143.734 148.746 144.358 146.614 145.054C144.855 145.628 142.863 146.223 140.735 146.47L140.731 146.473C137.001 148.472 133.786 149.797 130.79 151.785C129.383 152.719 127.995 153.855 126.551 155.101C125.165 156.296 123.638 157.672 122.169 158.869L122.17 158.87C121.286 159.603 120.111 160.392 119.305 160.973C118.4 161.625 117.764 162.145 117.364 162.608C107.607 175.653 99.5734 188.976 95.7883 204.933C95.6077 206.439 95.167 207.99 94.8606 209.183C94.5039 210.57 94.2679 211.682 94.2678 212.704V228.924C94.9425 231.473 95.051 234.387 95.051 236.954C95.051 239.863 94.9241 242.206 95.0432 244.163C95.2894 247.089 95.7711 249.669 96.6994 252.21L96.8772 252.698V253.562C97.2778 254.995 97.4089 256.563 97.5178 257.755C97.6571 259.28 97.7698 260.336 98.0305 261.114L98.0539 261.186C98.1304 261.302 98.2429 261.462 98.3899 261.653C98.5655 261.882 98.7525 262.111 98.9104 262.296C98.9887 262.388 99.0554 262.464 99.1047 262.519L99.1438 262.562L99.4817 262.899L99.6965 263.326C100.162 264.253 100.534 265.204 100.855 266.062C101.193 266.967 101.459 267.723 101.776 268.488C102.356 269.892 102.936 270.877 103.724 271.579L103.884 271.716L104.295 272.051L104.564 272.508C105.475 274.063 106.494 276.124 107.311 277.61C108.22 279.264 109.131 280.711 110.199 281.881L110.321 282.014L114.752 288.24C115.791 289.378 116.784 290.312 117.833 291.264C118.884 292.217 120.048 293.242 121.264 294.447C124.074 296.991 126.245 299.13 128.957 300.702L129.51 301.011L129.594 301.055L129.674 301.105C131.203 302.057 132.779 302.198 135.541 302.809L135.627 302.828L135.71 302.852C142.888 304.893 150.162 306.375 157.609 306.375H161.182C161.556 306.236 161.938 306.132 162.337 306.073C162.993 305.977 163.537 306.027 163.907 306.073C164.522 306.15 164.716 306.207 165.269 306.145C167.192 305.799 168.861 305.233 170.698 304.592C172.5 303.963 174.511 303.243 176.822 302.804C177.659 302.599 178.875 302.346 180.134 302.072C181.484 301.779 182.983 301.44 184.451 301.052C185.929 300.661 187.314 300.235 188.449 299.776C189.66 299.288 190.282 298.881 190.502 298.661L190.535 298.628L198.803 290.655C198.822 290.616 198.863 290.524 198.909 290.352C199.004 289.998 199.07 289.503 199.098 288.863C199.125 288.235 199.113 287.565 199.089 286.878C199.067 286.247 199.031 285.488 199.03 284.901V284.833L199.033 284.764C199.56 273.505 200.335 262.475 200.335 251.399C200.335 247.062 200.143 242.777 199.947 238.417C199.751 234.077 199.552 229.662 199.552 225.17C199.552 224.764 199.594 224.236 199.663 223.675C197.706 223.534 195.788 223.433 193.879 223.433H193.637L193.399 223.394C192.127 223.183 189.8 223.173 188.4 223.173C187.042 223.173 185.673 223.234 184.227 223.3C182.803 223.364 181.301 223.433 179.788 223.433H177.01L176.392 223.125C173.742 221.806 173.458 219.151 173.458 217.639C173.458 215.367 174.908 213.926 176.22 213.154C177.479 212.414 178.997 212.023 180.326 211.791C183.031 211.318 186.09 211.325 187.616 211.325H188.138C191.979 211.325 195.879 211.456 199.75 211.586C203.639 211.716 207.505 211.845 211.362 211.845C214.894 211.845 216.908 214.825 216.908 217.639V218.678C216.908 219.694 216.444 220.427 216.281 220.67C216.168 220.839 216.058 220.975 215.977 221.069C215.958 221.092 215.938 221.112 215.921 221.131C215.272 221.903 214.487 222.773 213.388 223.32C213.082 223.472 212.776 223.587 212.473 223.675V251.399C212.473 251.63 212.447 251.829 212.436 251.917C212.421 252.03 212.403 252.14 212.387 252.229C212.355 252.407 212.315 252.605 212.284 252.758C212.253 252.915 212.229 253.035 212.212 253.129V253.224C212.217 253.242 212.222 253.262 212.228 253.283C212.251 253.363 212.275 253.442 212.294 253.502C212.303 253.531 212.311 253.554 212.316 253.568C212.318 253.575 212.32 253.58 212.321 253.583L212.473 254.037V257.893C212.473 262.409 212.206 266.91 211.946 271.311L211.944 271.348C211.689 274.891 211.624 278.448 211.559 282.129C211.494 285.774 211.428 289.537 211.163 293.378C211.116 295.24 210.282 296.706 209.522 297.742C209.126 298.282 208.698 298.773 208.331 299.185C207.934 299.63 207.638 299.949 207.352 300.291L207.302 300.351L207.25 300.406C200.3 307.877 193.801 311.232 184.306 313.938L173.186 317.364L173.021 317.395C168.598 318.22 163.702 318.483 159.174 318.483C150.39 318.483 141.47 317.69 132.493 314.982L132.481 314.979L132.469 314.975C128.455 313.726 122.942 311.851 119.088 309.026C119.067 309.015 119.049 309.007 119.038 309.001C118.814 308.881 118.626 308.75 118.503 308.66C118.249 308.474 118.002 308.262 117.813 308.093C117.468 307.784 117.135 307.455 116.973 307.294C116.295 306.685 115.706 306.114 115.177 305.596C114.62 305.05 114.163 304.596 113.694 304.159C112.797 303.325 111.954 302.651 110.804 302.026L110.433 301.824L110.133 301.526C109.549 300.945 109.185 300.294 108.977 299.915C108.722 299.449 108.627 299.252 108.465 299.009C107.389 297.466 106.176 296.014 104.856 294.476C103.577 292.986 102.172 291.386 100.834 289.664C100.546 289.354 100.076 288.82 99.6789 288.346C99.4214 288.038 99.1437 287.696 98.9192 287.395C98.8217 287.264 98.7047 287.1 98.5959 286.928L98.3293 286.662L98.1194 286.259C96.3242 282.813 94.401 279.74 92.4328 276.295C90.5087 272.927 88.6432 269.367 87.2502 265.347L87.2278 265.282L87.2092 265.218L85.8674 260.677L85.841 260.549C84.8397 255.566 83.4809 250.101 82.6887 245.107L82.6799 245.054L82.6741 244.999C81.8635 238.276 82.1301 230.98 82.1301 224.65C82.1301 219.049 81.5918 212.257 82.7053 206.438L82.7815 206.037L82.9651 205.672C82.9676 205.666 82.9886 205.622 83.0315 205.524C83.0747 205.426 83.1294 205.3 83.1907 205.152C83.3134 204.856 83.456 204.496 83.591 204.138C83.7282 203.774 83.8462 203.441 83.925 203.189C83.9461 203.122 83.9609 203.069 83.9719 203.03C83.9988 202.629 84.0628 202.176 84.1125 201.846C84.1902 201.33 84.2923 200.72 84.3889 200.144C84.4879 199.552 84.5816 198.993 84.6506 198.535C84.7334 197.986 84.7395 197.832 84.7395 197.901V196.429L85.5657 195.811C85.5726 195.764 85.5786 195.714 85.5871 195.663C85.6484 195.298 85.7494 194.869 85.9309 194.382C88.5763 185.966 92.6055 176.011 98.1067 168.619L98.1125 168.612L98.1174 168.605C98.761 167.751 99.2714 166.776 100.077 165.391C100.777 164.187 101.655 162.768 102.872 161.499C103.237 160.984 103.663 160.547 104.012 160.215C104.457 159.792 104.96 159.367 105.381 159.011C106.362 158.179 106.91 157.678 107.155 157.312L107.157 157.31C107.158 157.309 107.159 157.308 107.159 157.307C107.161 157.304 107.163 157.301 107.165 157.297C107.171 157.289 107.179 157.278 107.188 157.265C107.206 157.238 107.23 157.201 107.261 157.156C107.322 157.068 107.407 156.945 107.503 156.812C107.604 156.671 107.81 156.385 108.043 156.112C109.036 154.585 110.579 152.469 112.341 150.58C113.265 149.59 114.295 148.611 115.38 147.806C116.239 147.168 117.24 146.557 118.337 146.178C122.459 142.65 128.046 138.622 133.364 136.406C133.413 136.374 133.456 136.347 133.49 136.326C133.781 136.151 134.068 136.035 134.235 135.972C134.605 135.831 135.024 135.711 135.369 135.621C135.732 135.526 136.102 135.441 136.407 135.378C136.559 135.347 136.713 135.318 136.852 135.295C136.854 135.295 136.857 135.293 136.86 135.293C143.829 132.985 152.391 130.327 160.278 129.786L160.378 129.779H163.655C163.683 129.772 163.718 129.765 163.759 129.754C163.98 129.696 164.257 129.614 164.596 129.513C164.909 129.419 165.285 129.306 165.618 129.219C165.786 129.175 165.978 129.127 166.171 129.089C166.326 129.058 166.643 129 167.002 129H167.263ZM398.899 130.275C399.309 130.287 399.421 130.299 399.634 130.299H402.412L403.272 131.154C404.066 131.945 404.594 132.902 404.759 134.052C404.894 134.993 404.752 135.895 404.619 136.571C404.433 137.817 404.068 138.792 403.676 139.65C403.49 140.057 403.281 140.473 403.11 140.822C402.929 141.19 402.759 141.543 402.593 141.929L402.511 142.118L402.405 142.294C396.975 151.217 393.735 160.295 390.731 168.906C387.822 177.244 385.064 185.388 380.621 191.96L377.094 201.992L377.072 202.054L377.048 202.113C376.177 204.281 375.092 206.146 374.166 207.767C373.211 209.439 372.423 210.855 371.869 212.398L371.809 212.565L371.729 212.725C371.726 212.731 371.641 212.92 371.477 213.332C371.328 213.704 371.15 214.167 370.98 214.629C370.808 215.096 370.654 215.537 370.546 215.875C370.516 215.971 370.494 216.05 370.476 216.111V216.45L370.218 217.025L366.04 226.317V306.716C366.04 307.273 365.96 308.315 365.861 309.238C365.78 309.991 365.641 311.102 365.426 311.861C365.282 312.433 364.998 313.455 364.416 314.381C363.802 315.359 362.55 316.665 360.493 316.665C358.262 316.665 356.738 315.471 355.655 314.089C355.234 313.634 354.786 313.022 354.519 312.649C354.341 312.402 354.182 312.173 354.069 312.008C354.011 311.925 353.965 311.856 353.932 311.808C353.916 311.784 353.903 311.765 353.894 311.751C353.889 311.744 353.886 311.738 353.883 311.734C353.882 311.732 353.88 311.731 353.879 311.729L353.878 311.728L356.318 310.092L353.877 311.727L353.383 310.989L353.121 226.388C351.658 223.47 350.114 220.307 349.059 216.632L348.945 216.234V216.111C348.927 216.05 348.905 215.971 348.874 215.875C348.767 215.537 348.613 215.096 348.441 214.629C348.27 214.167 348.092 213.704 347.944 213.332C347.777 212.916 347.693 212.727 347.692 212.725L347.612 212.565L347.552 212.398C346.998 210.855 346.21 209.439 345.254 207.767C344.328 206.146 343.243 204.281 342.372 202.113L342.348 202.054L342.326 201.992L338.798 191.96C334.355 185.389 331.599 177.243 328.691 168.906C325.687 160.295 322.447 151.217 317.017 142.294L316.909 142.118L316.828 141.929C316.662 141.543 316.492 141.191 316.311 140.822C316.139 140.473 315.931 140.057 315.745 139.65C315.356 138.799 314.993 137.831 314.806 136.599C314.672 135.919 314.524 135.006 314.661 134.052C314.827 132.902 315.355 131.945 316.15 131.154L317.009 130.299H319.787C320.001 130.299 320.111 130.287 320.522 130.275C320.844 130.266 321.3 130.261 321.792 130.318C322.799 130.436 324.111 130.844 325.124 132.073C326.158 133.172 326.892 134.755 327.345 135.808C327.61 136.423 327.847 137.028 328.033 137.497C328.138 137.761 328.219 137.96 328.28 138.107L328.413 138.41L328.469 138.52L328.514 138.633C328.934 139.678 329.277 140.211 329.651 140.784C330.088 141.454 330.634 142.266 331.147 143.627L331.166 143.678L331.184 143.729C331.587 144.935 332.004 146.604 332.325 147.697C332.704 148.983 333.07 149.954 333.495 150.632L333.945 151.349V151.766C333.994 151.899 334.054 152.061 334.124 152.234C334.214 152.458 334.306 152.679 334.375 152.845C334.403 152.91 334.427 152.966 334.446 153.01C335.274 154.546 335.903 156.075 336.484 157.442C337.021 158.71 337.541 159.897 338.205 161.1L338.499 161.616L338.602 161.79L338.679 161.978L349.101 187.131L349.413 187.88C349.722 188.639 350.018 189.422 350.305 190.19C350.695 191.236 351.07 192.255 351.477 193.268C352.246 195.182 353.048 196.86 354.012 198.183L354.206 198.442L354.424 198.724L359.617 210.441C361.272 206.618 363.031 202.837 364.891 198.967L365.025 198.688L365.214 198.442C366.265 197.082 367.123 195.309 367.944 193.268C368.35 192.255 368.726 191.236 369.116 190.19C369.494 189.179 369.887 188.14 370.304 187.168L380.741 161.978L380.82 161.79L380.921 161.616C381.731 160.234 382.322 158.891 382.937 157.442C383.517 156.074 384.146 154.545 384.975 153.009C384.993 152.965 385.018 152.91 385.045 152.845C385.115 152.679 385.206 152.458 385.296 152.234C385.366 152.061 385.426 151.9 385.476 151.768V151.349L385.926 150.632C386.352 149.954 386.718 148.983 387.096 147.697C387.417 146.604 387.834 144.935 388.238 143.729L388.254 143.678L388.274 143.627C388.786 142.266 389.333 141.454 389.77 140.784C390.144 140.211 390.486 139.678 390.906 138.633L390.952 138.52L391.007 138.41C391.066 138.292 391.177 138.025 391.387 137.497C391.573 137.028 391.81 136.423 392.075 135.808C392.529 134.753 393.263 133.167 394.299 132.068C395.312 130.843 396.623 130.436 397.628 130.318C398.12 130.261 398.576 130.266 398.899 130.275ZM267.42 300.143C272.053 300.143 276.36 303.438 276.36 308.274C276.359 313.111 272.053 316.406 267.42 316.406C262.788 316.406 258.481 313.111 258.481 308.274C258.481 303.438 262.788 300.143 267.42 300.143ZM435.541 133.675C436.994 133.675 438.367 134.114 439.429 135.14C440.414 136.091 440.833 137.264 441.041 138.14C441.249 139.013 441.319 139.921 441.368 140.539C441.407 141.013 441.436 141.33 441.467 141.558C441.537 141.702 441.602 141.847 441.656 141.978C441.802 142.325 441.948 142.728 442.077 143.113C442.207 143.5 442.334 143.914 442.432 144.289C442.477 144.46 442.563 144.802 442.614 145.184C443.263 147.793 443.785 150.392 444.292 152.914C444.751 155.196 445.198 157.417 445.726 159.623L445.957 160.568L445.961 160.584L445.965 160.601C446.573 163.141 447.429 165.524 448.346 168.034C449.247 170.499 450.219 173.117 450.915 175.891C452.822 183.483 454.01 191.019 456.522 197.812L458.293 201.589L458.342 201.692L458.382 201.8C459.322 204.294 459.62 207.629 459.853 209.481L459.875 209.664V210.051C460.101 211.064 460.465 212.169 460.898 213.46C461.341 214.783 461.862 216.327 462.166 217.839L462.224 218.126V218.228C462.225 218.231 462.225 218.235 462.226 218.238C462.252 218.373 462.296 218.571 462.355 218.823C462.472 219.324 462.635 219.965 462.808 220.607C462.982 221.252 463.157 221.868 463.3 222.323C463.317 222.377 463.335 222.427 463.35 222.473L463.789 222.91V223.646C463.832 223.747 463.881 223.868 463.942 224.008C464.034 224.221 464.152 224.497 464.246 224.736C464.293 224.855 464.352 225.01 464.404 225.173C464.429 225.254 464.463 225.371 464.493 225.507C464.517 225.613 464.572 225.877 464.572 226.209C464.572 226.161 464.571 226.126 464.571 226.111C464.57 226.095 464.569 226.084 464.569 226.082C464.569 226.084 464.57 226.094 464.572 226.112C464.576 226.161 464.584 226.236 464.596 226.334C464.62 226.53 464.655 226.779 464.696 227.022C464.708 227.095 464.72 227.162 464.732 227.225L465.094 227.585V228.515C465.112 228.576 465.134 228.655 465.164 228.752C465.272 229.09 465.426 229.531 465.598 229.998C465.768 230.46 465.946 230.922 466.095 231.294L466.347 231.902L466.525 232.255L466.603 232.642C466.709 233.17 466.75 233.714 466.779 234.106C466.811 234.558 466.829 234.881 466.868 235.22C466.93 235.75 467.014 235.966 467.045 236.032L467.056 236.055L467.491 236.597L469.203 244.549L469.269 244.854V245.168C469.269 245.174 469.27 245.184 469.27 245.199C469.27 245.229 469.271 245.277 469.273 245.335C469.274 245.39 469.279 245.451 469.281 245.516L469.53 245.764V246.424C469.596 246.561 469.671 246.721 469.77 246.931C469.903 247.212 470.07 247.57 470.205 247.913C470.273 248.085 470.351 248.298 470.416 248.525C470.451 248.648 470.507 248.867 470.542 249.142C470.808 250.515 470.968 252.053 471.133 253.231C471.319 254.556 471.545 255.745 471.961 256.884L473.517 261.012L473.601 261.235L473.648 261.469C474.287 264.652 475.056 267.842 475.843 271.137C476.601 274.313 477.372 277.577 478.026 280.915C478.982 283.177 479.463 285.281 479.824 287.308C480.206 289.451 480.421 291.229 480.896 293.402C481.212 294.197 481.6 294.918 482.087 295.923C482.536 296.848 483.089 298.062 483.307 299.405C484.047 302.83 484.781 305.025 486.078 308.899L486.23 309.354V310.352C486.23 311.845 485.851 313.495 484.541 314.712C483.275 315.888 481.68 316.146 480.422 316.146C478.195 316.146 476.333 315.448 475.025 313.804C474.082 312.618 473.608 311.089 473.28 309.991C473.27 309.976 473.26 309.961 473.25 309.945C473.194 309.851 473.14 309.75 473.09 309.642C472.906 309.348 472.572 308.736 472.531 307.918C472.53 307.906 472.528 307.891 472.526 307.872C472.511 307.777 472.488 307.637 472.453 307.452C472.385 307.082 472.292 306.62 472.193 306.126C472.096 305.646 471.994 305.134 471.915 304.709C471.876 304.497 471.838 304.283 471.81 304.092C471.804 304.055 471.798 304.003 471.79 303.941C469.19 295.859 467.35 287.763 465.304 279.363L465.221 279.021V278.876C465.204 278.797 465.178 278.685 465.142 278.54C465.051 278.178 464.922 277.709 464.777 277.194C464.505 276.235 464.148 275.023 464.004 274.449C463.84 273.795 463.725 273.115 463.631 272.527C463.53 271.899 463.452 271.377 463.351 270.856C463.134 269.747 462.913 269.292 462.775 269.127L462.272 268.526L462.134 267.754C461.768 265.691 461.279 263.858 460.757 261.943C460.273 260.166 459.755 258.292 459.348 256.235C459.317 256.156 459.292 256.085 459.273 256.026C459.192 255.785 459.134 255.543 459.093 255.354C459.009 254.963 458.94 254.522 458.887 254.136C458.818 253.629 458.748 253.009 458.716 252.571C458.224 250.169 457.556 247.804 456.852 245.318C456.139 242.804 455.389 240.163 454.841 237.436L454.829 237.381L454.821 237.326L453.608 229.842C452.448 227.821 451.857 225.307 451.446 223.201C450.942 220.626 450.683 218.609 450.218 216.959L449.107 213.824H421.477L420.996 215.26V218.011L420.903 218.371C418.3 228.474 415.678 238.912 412.795 249.084L412.707 249.396L412.553 249.682C411.831 251.016 411.314 252.716 410.836 254.713C410.404 256.518 409.952 258.835 409.42 260.706L409.421 260.707C407.362 268.647 405.496 276.857 402.857 285.262L402.836 285.326L402.813 285.39C402.369 286.605 402.077 287.859 401.789 289.258C401.513 290.602 401.224 292.18 400.799 293.729L400.722 294.01L400.591 294.271L400.564 294.325C400.545 294.364 400.516 294.42 400.483 294.489C400.415 294.628 400.326 294.812 400.239 294.999C400.195 295.096 400.156 295.187 400.121 295.267V295.305L399.932 295.806C399.309 297.459 399.089 300.052 398.793 302.407L398.771 302.584L398.728 302.757C398.404 304.047 398.059 304.818 397.739 305.524C397.473 306.115 397.215 306.678 396.892 307.735C396.844 307.931 396.779 308.236 396.681 308.696C396.582 309.158 396.461 309.721 396.32 310.301C396.069 311.33 395.658 312.859 395.002 313.946L394.924 314.076L394.832 314.197C393.803 315.563 392.414 316.003 391.361 316.126C390.868 316.184 390.413 316.178 390.09 316.169C389.68 316.157 389.569 316.147 389.356 316.146H386.814L386.032 315.562C385.211 314.95 384.497 314.179 384.048 313.137C383.622 312.148 383.547 311.165 383.547 310.352C383.547 309.043 383.889 308 384.198 307.191C384.535 306.312 384.751 305.874 384.966 305.126L385.02 304.939L385.098 304.761C388.857 296.155 390.505 287.385 392.043 279.014C393.518 270.986 394.926 263.031 398.305 256.625L400.33 246.802L400.362 246.693C400.927 244.724 401.638 242.954 402.235 241.393C402.846 239.79 403.364 238.343 403.705 236.758L403.784 236.392L403.873 236.214C403.891 236.148 403.917 236.052 403.947 235.924C404.018 235.612 404.098 235.207 404.175 234.779C404.251 234.355 404.318 233.936 404.365 233.604C404.389 233.436 404.406 233.304 404.416 233.21C404.419 233.186 404.421 233.167 404.422 233.153V232.903L404.489 232.594C405.796 226.613 407.676 220.664 409.178 214.954C409.918 210.261 410.481 205.372 411.819 200.554C412.623 197.226 413.622 193.912 414.593 190.691C415.576 187.431 416.53 184.264 417.29 181.111L417.293 181.098L417.297 181.084C417.428 180.565 417.763 179.228 418.135 177.915C418.32 177.262 418.523 176.582 418.722 175.997C418.843 175.64 419.039 175.08 419.303 174.58C420.109 172.45 421.008 170.189 421.464 168.388C423.294 160.068 425.394 151.703 428.026 143.571C428.204 142.939 428.223 142.388 428.391 141.176C428.524 140.213 428.764 138.853 429.55 137.562C430.54 135.412 432.767 133.675 435.541 133.675ZM156.032 315.509C156.542 315.521 157.051 315.53 157.56 315.536C157.051 315.53 156.542 315.521 156.032 315.509ZM154.489 315.462C154.643 315.468 154.797 315.472 154.951 315.477C154.797 315.472 154.643 315.468 154.489 315.462ZM152.862 315.39C153.14 315.404 153.418 315.416 153.696 315.428C153.418 315.416 153.14 315.404 152.862 315.39ZM151.332 315.3C151.6 315.318 151.869 315.333 152.137 315.349C151.869 315.333 151.6 315.318 151.332 315.3ZM149.697 315.178C150 315.203 150.302 315.226 150.605 315.248C150.302 315.226 150 315.203 149.697 315.178ZM148.182 315.04C148.475 315.069 148.768 315.096 149.061 315.122C148.768 315.096 148.475 315.069 148.182 315.04ZM146.619 314.872C146.888 314.903 147.157 314.933 147.426 314.962C147.157 314.933 146.888 314.903 146.619 314.872ZM143.925 314.518C143.94 314.52 143.955 314.521 143.97 314.523C143.955 314.521 143.94 314.52 143.925 314.518ZM142.312 314.261C142.398 314.275 142.484 314.288 142.57 314.303C142.484 314.288 142.398 314.275 142.312 314.261ZM141.455 314.11C141.643 314.144 141.832 314.177 142.02 314.21C141.832 314.177 141.643 314.144 141.455 314.11ZM140.739 313.978C140.934 314.015 141.129 314.051 141.324 314.087C141.129 314.051 140.934 314.015 140.739 313.978ZM139.94 313.82C140.093 313.851 140.247 313.882 140.401 313.912C140.247 313.882 140.093 313.851 139.94 313.82ZM139.153 313.657C139.321 313.693 139.49 313.728 139.658 313.763C139.49 313.728 139.321 313.693 139.153 313.657ZM360.613 313.724H360.614H360.613ZM359.936 313.673C359.972 313.68 360.008 313.687 360.045 313.692C360.008 313.687 359.972 313.68 359.936 313.673ZM359.769 313.634C359.814 313.646 359.86 313.656 359.906 313.666C359.86 313.656 359.814 313.646 359.769 313.634ZM359.603 313.582C359.633 313.593 359.663 313.602 359.694 313.611C359.663 313.602 359.633 313.593 359.603 313.582ZM138.305 313.472C138.478 313.511 138.651 313.549 138.824 313.587C138.651 313.549 138.478 313.511 138.305 313.472ZM359.434 313.516C359.467 313.53 359.501 313.544 359.535 313.557C359.501 313.544 359.467 313.53 359.434 313.516ZM359.273 313.439C359.309 313.458 359.345 313.476 359.381 313.492C359.345 313.476 359.309 313.458 359.273 313.439ZM137.508 313.288C137.711 313.336 137.914 313.383 138.117 313.43C137.914 313.383 137.711 313.336 137.508 313.288ZM359.133 313.362C359.158 313.377 359.184 313.391 359.209 313.405C359.184 313.391 359.158 313.377 359.133 313.362ZM268.581 313.372C268.594 313.37 268.606 313.369 268.618 313.367C268.606 313.369 268.594 313.37 268.581 313.372ZM268.819 313.329C268.853 313.322 268.887 313.315 268.921 313.308C268.887 313.315 268.853 313.322 268.819 313.329ZM265.923 313.31C265.953 313.316 265.984 313.321 266.014 313.327C265.984 313.321 265.953 313.316 265.923 313.31ZM358.983 313.268C359.001 313.28 359.018 313.292 359.036 313.304C359.018 313.292 359.001 313.28 358.983 313.268ZM269.09 313.268C269.125 313.259 269.16 313.251 269.195 313.242C269.16 313.251 269.125 313.259 269.09 313.268ZM265.646 313.242C265.675 313.25 265.704 313.256 265.733 313.264C265.704 313.256 265.675 313.25 265.646 313.242ZM390.324 313.234C390.405 313.236 390.486 313.237 390.567 313.235C390.486 313.237 390.405 313.236 390.324 313.234ZM390.654 313.233C390.688 313.232 390.723 313.231 390.757 313.229C390.723 313.231 390.688 313.232 390.654 313.233ZM136.789 313.114C136.951 313.154 137.113 313.194 137.275 313.232C137.113 313.194 136.951 313.154 136.789 313.114ZM390.882 313.221C390.901 313.219 390.919 313.218 390.938 313.216C390.919 313.218 390.901 313.219 390.882 313.221ZM391.079 313.199C391.103 313.196 391.127 313.192 391.151 313.188C391.127 313.192 391.103 313.196 391.079 313.199ZM265.362 313.162C265.398 313.173 265.434 313.183 265.471 313.193C265.434 313.183 265.398 313.173 265.362 313.162ZM269.368 313.193C269.405 313.183 269.442 313.173 269.478 313.162C269.442 313.173 269.405 313.183 269.368 313.193ZM358.835 313.162C358.848 313.172 358.861 313.182 358.874 313.191C358.861 313.182 358.848 313.172 358.835 313.162ZM391.268 313.168C391.298 313.162 391.327 313.155 391.357 313.148C391.327 313.155 391.298 313.162 391.268 313.168ZM391.455 313.123C391.494 313.112 391.531 313.1 391.569 313.087C391.531 313.1 391.494 313.112 391.455 313.123ZM265.11 313.078C265.125 313.084 265.141 313.089 265.157 313.095C265.141 313.089 265.125 313.084 265.11 313.078ZM269.682 313.095C269.698 313.089 269.714 313.084 269.73 313.078C269.714 313.084 269.698 313.089 269.682 313.095ZM358.648 313.01C358.681 313.039 358.714 313.067 358.747 313.094C358.714 313.067 358.681 313.039 358.648 313.01ZM391.643 313.062C391.68 313.047 391.717 313.031 391.753 313.015C391.717 313.031 391.68 313.047 391.643 313.062ZM136.003 312.915C136.165 312.957 136.327 312.998 136.489 313.039C136.327 312.998 136.165 312.957 136.003 312.915ZM264.824 312.97C264.858 312.983 264.892 312.997 264.926 313.01C264.892 312.997 264.858 312.983 264.824 312.97ZM269.913 313.01C269.947 312.997 269.981 312.983 270.015 312.97C269.981 312.983 269.947 312.997 269.913 313.01ZM391.828 312.98C391.874 312.958 391.918 312.932 391.962 312.905C391.918 312.932 391.874 312.958 391.828 312.98ZM358.51 312.884C358.541 312.914 358.572 312.943 358.604 312.972C358.572 312.943 358.541 312.914 358.51 312.884ZM264.556 312.853C264.602 312.874 264.649 312.895 264.697 312.915C264.649 312.895 264.602 312.874 264.556 312.853ZM270.144 312.915C270.193 312.894 270.241 312.872 270.289 312.85C270.241 312.872 270.193 312.894 270.144 312.915ZM392 312.883C392.045 312.854 392.089 312.822 392.132 312.788C392.089 312.822 392.045 312.854 392 312.883ZM134.153 312.409C134.665 312.557 135.177 312.698 135.689 312.833C135.177 312.698 134.665 312.557 134.153 312.409ZM358.34 312.714C358.376 312.752 358.413 312.789 358.449 312.825C358.413 312.789 358.376 312.752 358.34 312.714ZM264.317 312.734C264.36 312.757 264.403 312.778 264.447 312.8C264.403 312.778 264.36 312.757 264.317 312.734ZM270.394 312.8C270.438 312.778 270.482 312.756 270.526 312.733C270.482 312.756 270.438 312.778 270.394 312.8ZM392.333 312.609C392.282 312.663 392.229 312.712 392.174 312.757C392.229 312.712 392.283 312.663 392.334 312.609H392.333ZM358.217 312.578C358.249 312.614 358.28 312.65 358.312 312.685C358.28 312.65 358.249 312.614 358.217 312.578ZM264.074 312.603C264.112 312.624 264.15 312.645 264.188 312.666C264.15 312.645 264.112 312.624 264.074 312.603ZM270.653 312.666C270.69 312.645 270.728 312.624 270.765 312.603C270.728 312.624 270.69 312.645 270.653 312.666ZM263.83 312.454C263.878 312.484 263.926 312.514 263.974 312.543C263.926 312.514 263.878 312.484 263.83 312.454ZM270.865 312.543C270.914 312.514 270.962 312.484 271.009 312.454C270.962 312.484 270.914 312.514 270.865 312.543ZM358.143 312.493C358.152 312.504 358.16 312.515 358.169 312.525C358.16 312.515 358.152 312.504 358.143 312.493ZM263.626 312.316C263.662 312.342 263.699 312.366 263.736 312.391C263.699 312.366 263.662 312.342 263.626 312.316ZM271.104 312.391C271.14 312.366 271.177 312.342 271.213 312.316C271.177 312.342 271.14 312.366 271.104 312.391ZM263.419 312.164C263.447 312.185 263.474 312.206 263.502 312.227C263.474 312.206 263.447 312.185 263.419 312.164ZM271.337 312.227C271.365 312.206 271.393 312.185 271.42 312.164C271.393 312.185 271.365 312.206 271.337 312.227ZM131.732 311.658C132.281 311.837 132.819 312.008 133.341 312.17L131.733 311.658C131.458 311.569 131.181 311.477 130.902 311.383L131.732 311.658ZM263.216 312C263.238 312.018 263.259 312.037 263.281 312.055C263.259 312.037 263.238 312.018 263.216 312ZM271.559 312.055C271.586 312.033 271.612 312.01 271.638 311.987C271.612 312.01 271.586 312.033 271.559 312.055ZM271.739 311.898C271.77 311.871 271.8 311.843 271.83 311.815C271.8 311.843 271.77 311.871 271.739 311.898ZM263.015 311.821C263.038 311.843 263.061 311.864 263.084 311.885C263.061 311.864 263.038 311.843 263.015 311.821ZM392.899 311.533C392.856 311.648 392.813 311.76 392.768 311.865L392.9 311.533C392.942 311.418 392.984 311.298 393.025 311.176L392.899 311.533ZM262.82 311.63C262.847 311.658 262.875 311.685 262.903 311.713C262.875 311.685 262.847 311.658 262.82 311.63ZM271.937 311.713C271.965 311.685 271.993 311.658 272.02 311.63C271.993 311.658 271.965 311.685 271.937 311.713ZM262.63 311.424C262.662 311.461 262.695 311.497 262.728 311.533C262.695 311.497 262.662 311.461 262.63 311.424ZM272.113 311.533C272.146 311.497 272.178 311.461 272.21 311.424C272.178 311.461 272.146 311.497 272.113 311.533ZM386.518 311.054C386.531 311.176 386.55 311.293 386.572 311.406C386.55 311.293 386.531 311.176 386.518 311.054ZM262.448 311.204C262.484 311.249 262.52 311.294 262.557 311.338C262.52 311.294 262.484 311.249 262.448 311.204ZM272.282 311.338C272.319 311.294 272.356 311.249 272.392 311.204C272.356 311.249 272.319 311.294 272.282 311.338ZM272.432 311.151C272.472 311.099 272.511 311.045 272.549 310.991C272.511 311.045 272.472 311.099 272.432 311.151ZM262.315 311.025C262.344 311.067 262.374 311.109 262.405 311.149C262.374 311.109 262.344 311.067 262.315 311.025ZM362.655 310.846C362.659 310.828 362.664 310.81 362.668 310.792C362.664 310.81 362.659 310.828 362.655 310.846ZM272.6 310.918C272.623 310.884 272.645 310.85 272.667 310.815C272.645 310.85 272.623 310.884 272.6 310.918ZM262.173 310.815C262.194 310.848 262.216 310.881 262.238 310.914C262.216 310.881 262.194 310.848 262.173 310.815ZM262.013 310.548C262.044 310.604 262.076 310.661 262.11 310.716C262.076 310.661 262.044 310.604 262.013 310.548ZM272.73 310.716C272.763 310.66 272.796 310.604 272.827 310.548C272.796 310.604 272.763 310.66 272.73 310.716ZM362.714 310.548C362.731 310.455 362.749 310.357 362.766 310.253C362.749 310.357 362.731 310.455 362.714 310.548ZM261.91 310.352C261.936 310.404 261.963 310.456 261.99 310.507C261.963 310.456 261.936 310.404 261.91 310.352ZM272.849 310.507C272.877 310.455 272.904 310.404 272.93 310.352C272.904 310.404 272.877 310.455 272.849 310.507ZM476.345 309.945C476.383 310.06 476.422 310.172 476.461 310.282C476.422 310.172 476.383 310.06 476.345 309.945ZM273.069 310.045C273.097 309.977 273.124 309.909 273.149 309.84C273.124 309.909 273.097 309.977 273.069 310.045ZM261.79 310.092C261.815 310.15 261.84 310.208 261.867 310.265C261.84 310.208 261.815 310.15 261.79 310.092ZM386.52 309.789C386.542 309.608 386.575 309.432 386.615 309.26C386.575 309.432 386.542 309.608 386.52 309.789ZM362.794 310.065C362.814 309.93 362.835 309.788 362.854 309.642C362.835 309.788 362.814 309.93 362.794 310.065ZM261.692 309.84C261.715 309.906 261.739 309.972 261.766 310.037C261.739 309.972 261.715 309.906 261.692 309.84ZM261.626 309.642C261.642 309.694 261.659 309.747 261.677 309.799C261.659 309.747 261.642 309.694 261.626 309.642ZM273.163 309.799C273.181 309.747 273.198 309.694 273.214 309.642C273.198 309.694 273.181 309.747 273.163 309.799ZM261.539 309.327C261.557 309.402 261.577 309.476 261.598 309.55C261.577 309.476 261.557 309.402 261.539 309.327ZM273.304 309.311C273.32 309.239 273.335 309.167 273.348 309.095C273.335 309.167 273.32 309.239 273.304 309.311ZM362.879 309.439C362.895 309.31 362.91 309.177 362.925 309.045C362.91 309.177 362.895 309.31 362.879 309.439ZM261.459 308.88C261.467 308.938 261.475 308.996 261.485 309.054C261.475 308.996 261.467 308.938 261.459 308.88ZM273.356 309.054C273.366 308.996 273.372 308.938 273.38 308.88C273.372 308.938 273.366 308.996 273.356 309.054ZM149.92 308.836C150.438 308.898 150.957 308.956 151.477 309.007C150.957 308.956 150.438 308.898 149.92 308.836ZM362.957 308.746C362.973 308.598 362.987 308.451 363 308.307C362.987 308.451 362.973 308.598 362.957 308.746ZM261.426 308.54C261.43 308.607 261.436 308.675 261.443 308.741C261.434 308.658 261.429 308.575 261.425 308.491L261.426 308.54ZM273.421 308.274C273.421 308.363 273.419 308.452 273.414 308.54L273.422 308.274C273.422 308.185 273.419 308.096 273.414 308.008L273.421 308.274ZM363.01 308.195C363.024 308.038 363.037 307.885 363.048 307.74C363.037 307.885 363.024 308.038 363.01 308.195ZM194.596 306.789H194.597H194.596ZM273.066 306.493H273.067H273.066ZM394.57 305.463C394.489 305.668 394.406 305.893 394.32 306.144C394.406 305.893 394.489 305.668 394.57 305.463ZM133.15 305.316C133.733 305.434 134.319 305.548 134.906 305.678C135.423 305.825 135.942 305.967 136.461 306.108C136.401 306.092 136.341 306.077 136.28 306.061L134.907 305.677C134.32 305.547 133.733 305.433 133.15 305.315V305.316ZM177.44 305.678V305.677V305.678ZM395.232 303.935C395.1 304.235 394.964 304.527 394.818 304.863C394.964 304.527 395.1 304.235 395.232 303.935ZM270.315 303.71H270.316H270.315ZM395.336 303.684C395.37 303.602 395.404 303.52 395.438 303.435C395.404 303.52 395.37 303.602 395.336 303.684ZM117.397 303.657C116.665 302.942 116.007 302.281 115.315 301.661C116.007 302.281 116.665 302.942 117.397 303.657ZM395.765 302.464C395.707 302.666 395.649 302.85 395.59 303.021C395.649 302.85 395.707 302.666 395.765 302.464ZM395.879 302.041H395.878H395.879ZM118.381 295.744C118.667 296.015 118.957 296.296 119.25 296.588C120.308 297.545 121.331 298.502 122.37 299.42C121.331 298.502 120.309 297.545 119.251 296.588C118.957 296.296 118.668 296.016 118.381 295.744ZM205.888 297.508C205.664 297.757 205.444 298.006 205.233 298.252C205.444 298.006 205.664 297.757 205.888 297.508ZM110.901 297.367C110.754 297.156 110.605 296.947 110.454 296.74C110.605 296.947 110.754 297.156 110.901 297.367C110.984 297.492 111.061 297.618 111.133 297.742C111.061 297.618 110.984 297.492 110.901 297.367ZM206.437 296.886C206.503 296.809 206.571 296.733 206.636 296.655C206.571 296.733 206.503 296.809 206.437 296.886ZM207.06 296.127C207.077 296.104 207.094 296.081 207.112 296.058C207.094 296.081 207.077 296.104 207.06 296.127ZM207.247 295.87C207.28 295.823 207.313 295.777 207.345 295.729C207.313 295.777 207.28 295.823 207.247 295.87ZM207.44 295.585C207.478 295.525 207.516 295.466 207.552 295.405C207.516 295.466 207.478 295.525 207.44 295.585ZM207.641 295.251C207.671 295.197 207.702 295.143 207.731 295.088C207.702 295.143 207.671 295.197 207.641 295.251ZM207.814 294.921C207.842 294.861 207.87 294.801 207.896 294.74C207.87 294.801 207.842 294.861 207.814 294.921ZM208.056 294.317C208.071 294.27 208.085 294.223 208.098 294.176C208.085 294.223 208.071 294.27 208.056 294.317ZM108.079 293.733H108.08H108.079ZM208.108 294.138C208.119 294.094 208.129 294.05 208.139 294.006C208.129 294.05 208.119 294.094 208.108 294.138ZM208.184 293.776C208.203 293.654 208.218 293.531 208.225 293.405L208.231 293.212C208.361 291.329 208.442 289.463 208.499 287.608V287.607C208.442 289.462 208.36 291.329 208.23 293.212C208.23 293.404 208.213 293.592 208.184 293.776ZM107.374 283.092C107.586 283.355 107.803 283.614 108.03 283.862L112.466 290.096C112.906 290.583 113.338 291.032 113.764 291.458C113.339 291.032 112.907 290.582 112.467 290.095L108.03 283.862C107.803 283.614 107.586 283.355 107.374 283.092ZM398.231 291.905C398.148 292.254 398.062 292.603 397.966 292.952C398.062 292.603 398.148 292.254 398.231 291.905ZM201.575 291.636C201.584 291.614 201.594 291.594 201.602 291.572L201.612 291.545C201.6 291.576 201.587 291.606 201.575 291.636ZM398.331 291.459C398.376 291.261 398.421 291.063 398.463 290.865C398.421 291.063 398.376 291.261 398.331 291.459ZM400.533 282.826C400.376 283.344 400.216 283.862 400.053 284.382H400.054C400.217 283.863 400.377 283.344 400.534 282.827L400.533 282.826ZM202.461 275.195C202.313 278.026 202.164 280.857 202.028 283.688C202.164 280.857 202.313 278.026 202.461 275.195ZM208.791 275.229C208.738 276.594 208.703 277.961 208.674 279.331C208.703 277.961 208.738 276.594 208.791 275.229ZM474.705 279.331C474.832 279.929 474.954 280.528 475.073 281.13C474.954 280.528 474.832 279.929 474.705 279.331ZM474.323 277.575C474.276 277.359 474.227 277.143 474.179 276.928C474.227 277.143 474.276 277.359 474.323 277.575ZM402.302 276.659H402.303H402.302ZM103.173 276.077C103.084 275.909 102.995 275.742 102.906 275.576C102.995 275.742 103.084 275.909 103.173 276.077ZM473.816 275.346C473.751 275.069 473.689 274.792 473.624 274.516C473.689 274.792 473.751 275.069 473.816 275.346ZM102.029 273.994C102.116 274.144 102.203 274.296 102.289 274.449L102.03 273.994C101.975 273.95 101.923 273.905 101.87 273.859C101.923 273.904 101.975 273.95 102.029 273.994ZM472.192 268.474C472.539 269.951 472.893 271.434 473.247 272.923C472.893 271.434 472.539 269.951 472.192 268.474ZM406.767 259.276C406.705 259.511 406.642 259.742 406.576 259.97C405.794 262.989 405.049 266.008 404.284 269.041C404.794 267.019 405.295 265.003 405.805 262.989C406.06 261.983 406.316 260.976 406.577 259.97C406.643 259.742 406.706 259.511 406.768 259.276H406.767ZM99.7151 271.032C99.7404 271.081 99.7663 271.129 99.7922 271.178C99.7663 271.129 99.7404 271.081 99.7151 271.032ZM209.04 270.663C209.094 269.747 209.148 268.83 209.199 267.914C209.148 268.83 209.094 269.747 209.04 270.663ZM98.2463 267.481C98.3867 267.861 98.5276 268.242 98.6711 268.621C98.5276 268.242 98.3867 267.861 98.2463 267.481ZM96.9309 264.494C96.9925 264.563 97.041 264.614 97.0715 264.645C97.3649 265.229 97.6211 265.84 97.8635 266.464C97.7019 266.048 97.5347 265.638 97.3537 265.237C97.2632 265.037 97.1693 264.839 97.0715 264.645C97.041 264.614 96.9924 264.562 96.9309 264.494ZM209.375 264.416C209.393 264.009 209.41 263.602 209.425 263.194C209.41 263.602 209.393 264.009 209.375 264.416ZM209.443 262.707C209.457 262.294 209.47 261.882 209.482 261.469C209.47 261.882 209.457 262.294 209.443 262.707ZM463.202 259.737C463.459 260.694 463.724 261.644 463.981 262.617L463.592 261.171C463.462 260.692 463.331 260.216 463.202 259.737ZM468.224 253.64C468.42 255.036 468.68 256.464 469.201 257.893L470.598 261.598L469.202 257.893C469.007 257.357 468.848 256.821 468.715 256.287C468.627 255.931 468.55 255.576 468.482 255.223C468.38 254.692 468.297 254.163 468.224 253.64ZM209.534 254.517V257.893C209.534 258.958 209.519 260.023 209.492 261.088C209.505 260.575 209.517 260.061 209.524 259.548L209.535 257.893V254.517C209.534 254.513 209.5 254.408 209.456 254.264C209.501 254.41 209.534 254.517 209.534 254.517ZM209.534 221.534V251.399H209.535V221.534H209.534ZM467.489 249.036C467.52 249.118 467.547 249.195 467.57 249.266C467.547 249.195 467.52 249.118 467.489 249.036ZM467.381 248.776C467.357 248.72 467.333 248.662 467.307 248.604C467.333 248.662 467.357 248.72 467.381 248.776ZM467.191 248.351C467.169 248.303 467.147 248.255 467.124 248.208C467.147 248.255 467.169 248.303 467.191 248.351ZM466.592 246.985L466.593 246.984L466.592 246.985ZM92.3616 246.681H92.3625H92.3616ZM403.386 246.832C403.352 246.941 403.32 247.052 403.287 247.162C403.32 247.052 403.352 246.941 403.386 246.832ZM466.434 246.545C466.458 246.674 466.487 246.787 466.524 246.871C466.487 246.787 466.458 246.674 466.434 246.545ZM403.814 245.544C403.77 245.668 403.728 245.793 403.686 245.918C403.728 245.793 403.77 245.668 403.814 245.544ZM466.335 245.415L466.336 245.414L466.335 245.415ZM404.483 243.73C404.389 243.977 404.297 244.225 404.204 244.475C404.297 244.225 404.389 243.977 404.483 243.73ZM85.4631 243.498C85.4962 243.824 85.5324 244.15 85.5705 244.474C85.5324 244.15 85.4962 243.824 85.4631 243.498ZM85.3567 242.347C85.3767 242.584 85.3987 242.821 85.4211 243.058C85.3987 242.821 85.3767 242.584 85.3567 242.347ZM85.2649 241.144C85.2806 241.374 85.2989 241.604 85.3166 241.833C85.2989 241.604 85.2806 241.374 85.2649 241.144ZM85.1887 239.873C85.2017 240.117 85.2157 240.36 85.2307 240.604C85.2157 240.36 85.2017 240.117 85.1887 239.873ZM406.167 238.986C406.194 238.893 406.223 238.8 406.249 238.706L406.26 238.665C406.23 238.773 406.198 238.88 406.167 238.986ZM85.134 238.706C85.1428 238.921 85.1522 239.135 85.1623 239.35C85.1522 239.135 85.1428 238.921 85.134 238.706ZM85.093 237.561C85.1003 237.802 85.1085 238.044 85.1174 238.285C85.1085 238.044 85.1004 237.802 85.093 237.561ZM85.0285 232.854C85.0289 233.256 85.0299 233.657 85.0324 234.059C85.0299 233.657 85.0289 233.256 85.0285 232.854ZM85.0324 230.83C85.0309 231.124 85.0295 231.418 85.0285 231.712C85.0295 231.418 85.0309 231.124 85.0324 230.83ZM462.028 228.541C462.014 228.499 462 228.454 461.987 228.405C462 228.454 462.014 228.499 462.028 228.541ZM461.716 226.972C461.724 227.031 461.734 227.093 461.743 227.155C461.734 227.093 461.724 227.031 461.716 226.972ZM460.72 223.859C460.776 224.005 460.821 224.1 460.852 224.131C460.821 224.1 460.776 224.005 460.72 223.859ZM212.272 220.584H212.273H212.272ZM180.864 220.484L181.806 220.46C181.846 220.459 181.886 220.456 181.926 220.455C181.572 220.467 181.218 220.477 180.864 220.484ZM84.9602 217.961C84.9676 218.406 84.9772 218.851 84.9866 219.297C84.9772 218.851 84.9676 218.406 84.9602 217.961ZM213.775 219.119C213.792 219.098 213.811 219.074 213.83 219.047C213.811 219.074 213.792 219.098 213.775 219.119ZM213.931 218.862C213.942 218.834 213.953 218.804 213.96 218.774H213.959C213.953 218.804 213.942 218.834 213.931 218.862ZM246.447 137.405C257.569 130.931 269.73 129.778 280.783 133.785C291.838 137.792 301.503 146.852 307.907 160.278L307.923 160.312L307.939 160.346C308.696 162.041 308.844 163.916 308.965 165.275C309.101 166.793 309.214 168.004 309.608 169.181L309.759 169.635V180.605L309.671 180.957C308.91 183.987 308.734 186.381 308.146 189.6L308.122 189.729L308.087 189.856C306.956 193.936 304.93 198.375 302.319 202.291C299.725 206.179 296.411 209.768 292.596 211.895L292.595 211.894C285.289 216.079 276.47 217.951 267.685 218.746L267.424 218.771L267.163 218.747C258.136 217.954 249.043 216.087 241.723 211.894C237.908 209.767 234.593 206.179 232 202.291C229.389 198.375 227.362 193.936 226.232 189.856L226.197 189.729L226.173 189.6C225.585 186.381 225.409 183.987 224.648 180.957L224.56 180.605V169.508L225.182 168.06C224.784 166.109 224.964 164.001 225.791 161.806L225.824 161.72L225.863 161.636C229.099 154.449 230.425 149.786 236.412 144.625C239.294 141.512 242.686 139.286 246.447 137.405ZM351.489 199.704C351.617 199.886 351.748 200.065 351.882 200.239V200.238C351.748 200.064 351.617 199.886 351.489 199.704ZM213.953 217.316C213.946 217.236 213.937 217.156 213.924 217.077C213.937 217.156 213.946 217.236 213.953 217.316ZM176.419 217.336C176.414 217.368 176.411 217.4 176.407 217.433C176.411 217.4 176.414 217.368 176.419 217.336ZM176.442 217.216C176.436 217.244 176.43 217.272 176.425 217.3C176.43 217.272 176.436 217.244 176.442 217.216ZM176.482 217.064C176.473 217.094 176.464 217.123 176.456 217.153C176.464 217.123 176.473 217.094 176.482 217.064ZM84.9446 216.874C84.9454 216.951 84.9466 217.029 84.9475 217.106C84.9466 217.029 84.9454 216.951 84.9446 216.874ZM176.529 216.934C176.517 216.964 176.505 216.994 176.494 217.025C176.505 216.994 176.517 216.964 176.529 216.934ZM176.743 216.532C176.717 216.57 176.693 216.609 176.669 216.647C176.693 216.609 176.717 216.57 176.743 216.532ZM213.875 216.846C213.873 216.835 213.87 216.824 213.867 216.813C213.87 216.824 213.873 216.835 213.875 216.846ZM213.819 216.647C213.808 216.614 213.798 216.58 213.786 216.547C213.798 216.58 213.808 216.614 213.819 216.647ZM213.74 216.43C213.723 216.387 213.707 216.344 213.688 216.303C213.707 216.344 213.723 216.387 213.74 216.43ZM84.9377 215.733C84.9379 215.911 84.9396 216.088 84.9407 216.266C84.9396 216.088 84.9379 215.911 84.9377 215.733ZM177.008 216.218C176.996 216.23 176.984 216.243 176.972 216.256C176.984 216.243 176.996 216.23 177.008 216.218ZM213.644 216.215C213.619 216.165 213.595 216.116 213.568 216.068C213.595 216.116 213.619 216.165 213.644 216.215ZM213.512 215.979C213.485 215.935 213.458 215.892 213.429 215.851C213.458 215.892 213.485 215.935 213.512 215.979ZM177.687 215.699C177.632 215.732 177.581 215.768 177.53 215.802C177.581 215.768 177.632 215.732 177.687 215.699ZM213.365 215.768C213.335 215.728 213.304 215.687 213.272 215.649C213.304 215.688 213.335 215.728 213.365 215.768ZM177.995 215.532C177.928 215.566 177.863 215.601 177.799 215.637C177.863 215.601 177.928 215.566 177.995 215.532ZM213.184 215.555C213.156 215.526 213.129 215.496 213.1 215.469C213.129 215.496 213.156 215.526 213.184 215.555ZM178.296 215.392C178.233 215.419 178.171 215.449 178.111 215.478C178.171 215.449 178.233 215.419 178.296 215.392ZM213 215.38C212.969 215.353 212.938 215.326 212.905 215.301C212.938 215.326 212.969 215.353 213 215.38ZM178.63 215.256C178.579 215.275 178.528 215.295 178.478 215.315C178.528 215.295 178.579 215.275 178.63 215.256ZM84.9446 214.546C84.9417 214.783 84.9405 215.021 84.9397 215.26C84.9406 215.021 84.9417 214.783 84.9446 214.546ZM212.801 215.226C212.768 215.202 212.735 215.179 212.7 215.157C212.735 215.179 212.768 215.202 212.801 215.226ZM179.005 215.125C178.94 215.146 178.875 215.167 178.812 215.189C178.875 215.167 178.94 215.146 179.005 215.125ZM212.588 215.093C212.55 215.072 212.512 215.051 212.473 215.032C212.512 215.051 212.55 215.072 212.588 215.093ZM179.416 215.001C179.334 215.024 179.252 215.047 179.172 215.071C179.252 215.047 179.334 215.024 179.416 215.001ZM212.354 214.979C212.316 214.964 212.279 214.948 212.24 214.935C212.279 214.948 212.316 214.964 212.354 214.979ZM180.336 214.778C180.069 214.833 179.808 214.895 179.556 214.962C179.808 214.895 180.069 214.833 180.336 214.778ZM212.106 214.891C212.065 214.879 212.025 214.867 211.984 214.857C212.025 214.867 212.065 214.879 212.106 214.891ZM211.846 214.828C211.804 214.82 211.762 214.813 211.719 214.808C211.762 214.813 211.804 214.82 211.846 214.828ZM180.759 214.698C180.703 214.708 180.647 214.719 180.591 214.729C180.647 214.719 180.703 214.708 180.759 214.698ZM181.165 214.63C181.118 214.637 181.071 214.646 181.024 214.653C181.071 214.646 181.118 214.637 181.165 214.63ZM181.584 214.568C181.531 214.576 181.479 214.583 181.426 214.591C181.479 214.583 181.531 214.576 181.584 214.568ZM182.374 214.473C182.355 214.475 182.335 214.476 182.316 214.479C182.335 214.476 182.355 214.475 182.374 214.473ZM276.928 214.451C276.885 214.46 276.841 214.468 276.798 214.477C277.099 214.415 277.399 214.353 277.697 214.287L276.928 214.451ZM183.412 214.383C183.261 214.394 183.108 214.406 182.955 214.419C183.108 214.406 183.261 214.394 183.412 214.383ZM195.489 214.39C195.163 214.38 194.837 214.371 194.512 214.362C194.837 214.371 195.163 214.38 195.489 214.39ZM184.275 214.33C184.119 214.338 183.961 214.346 183.803 214.355C183.961 214.346 184.119 214.338 184.275 214.33ZM185.21 214.292C185.039 214.297 184.864 214.302 184.687 214.31C184.864 214.302 185.039 214.297 185.21 214.292ZM192.345 214.309C192.068 214.303 191.792 214.299 191.516 214.294C191.792 214.299 192.068 214.303 192.345 214.309ZM186.221 214.27C185.976 214.273 185.72 214.277 185.455 214.284C185.72 214.277 185.976 214.273 186.221 214.27ZM84.9631 213.544C84.957 213.783 84.9531 214.023 84.9494 214.263C84.9532 214.023 84.957 213.783 84.9631 213.544ZM350.926 212.895C351.072 213.276 351.225 213.687 351.364 214.079C351.225 213.687 351.072 213.276 350.926 212.895ZM368.54 212.774C368.556 212.733 368.573 212.692 368.589 212.651C368.573 212.692 368.556 212.733 368.54 212.774ZM84.9973 212.524C84.9905 212.687 84.9852 212.85 84.9797 213.013C84.9852 212.85 84.9905 212.687 84.9973 212.524ZM368.749 212.242C368.708 212.344 368.666 212.453 368.622 212.565C368.677 212.426 368.73 212.292 368.78 212.169L368.749 212.242ZM85.0569 211.406C85.0465 211.569 85.0373 211.731 85.0285 211.895C85.0373 211.731 85.0465 211.569 85.0569 211.406ZM85.1408 210.301C85.1224 210.508 85.1055 210.717 85.0901 210.926C85.1055 210.717 85.1224 210.508 85.1408 210.301ZM85.258 209.153C85.2414 209.293 85.2253 209.433 85.2102 209.573C85.2253 209.433 85.2414 209.293 85.258 209.153ZM456.688 207.816C456.668 207.661 456.649 207.504 456.627 207.347C456.648 207.504 456.668 207.661 456.688 207.816ZM85.302 208.803C85.3359 208.541 85.3724 208.281 85.4123 208.022L85.4143 208.007C85.3734 208.271 85.3365 208.536 85.302 208.803ZM242.382 200.057C243.756 201.489 245.37 202.901 247.327 204.395C250.458 206.212 254.634 207.77 257.765 208.809H257.766C255.613 208.094 252.967 207.134 250.506 206.014C250.282 205.912 250.06 205.809 249.84 205.704C248.959 205.286 248.111 204.848 247.328 204.394C247.084 204.207 246.845 204.021 246.611 203.837C245.674 203.1 244.82 202.38 244.035 201.664C243.839 201.485 243.648 201.306 243.46 201.128C243.085 200.771 242.726 200.415 242.382 200.057ZM348.843 208.171V208.17V208.171ZM456.576 206.991C456.551 206.813 456.525 206.633 456.497 206.454C456.525 206.633 456.551 206.813 456.576 206.991ZM267.159 142.961C262.349 143.709 257.799 144.919 253.263 146.81C252.224 147.336 251.263 148.02 250.023 148.888C248.964 149.628 247.727 150.48 246.285 151.2L242.55 155.575C241.946 156.896 241.063 157.965 240.395 158.746C239.605 159.669 239.109 160.211 238.766 160.747C238.128 162.471 237.673 164.014 237.209 165.628C237.155 167.044 236.834 168.313 236.128 169.664C235.877 171.917 235.654 174.026 235.654 176.347C235.654 179.137 235.866 180.435 236.571 183.018C238.244 187.878 239.582 191.208 241.364 194.027C243.096 196.769 245.332 199.156 248.956 201.939C251.733 203.524 255.469 204.942 258.473 205.946C261.315 206.408 263.957 206.653 266.909 206.899C270.088 206.654 272.761 206.407 275.862 205.94C278.861 204.937 282.588 203.523 285.36 201.941C288.985 199.157 291.223 196.77 292.955 194.027C294.737 191.208 296.075 187.878 297.748 183.018C298.453 180.435 298.665 179.137 298.665 176.347C298.665 170.837 297.723 166.072 295.572 160.778C295.228 160.232 294.729 159.687 293.924 158.746C293.256 157.965 292.371 156.896 291.768 155.575L288.032 151.2C286.591 150.48 285.355 149.628 284.296 148.888C283.055 148.02 282.094 147.336 281.055 146.81C276.519 144.919 271.97 143.709 267.159 142.961ZM282.456 206.609C283.14 206.32 283.818 206.018 284.479 205.704C284.039 205.913 283.59 206.117 283.138 206.315C282.912 206.415 282.684 206.512 282.456 206.608V206.609ZM456.309 205.361C456.289 205.26 456.269 205.158 456.248 205.058C456.269 205.158 456.289 205.26 456.309 205.361ZM94.5207 198.442C93.9173 200.387 93.3726 202.369 92.8957 204.395C92.8706 204.645 92.8337 204.897 92.7912 205.152C92.8338 204.897 92.8715 204.644 92.8967 204.394C93.019 203.874 93.1457 203.358 93.2766 202.844C93.656 201.354 94.0722 199.888 94.5207 198.442ZM456.212 204.884C456.197 204.815 456.182 204.746 456.166 204.678C456.182 204.746 456.197 204.815 456.212 204.884ZM286.99 204.395V204.394V204.395ZM456.12 204.479C456.095 204.371 456.068 204.263 456.041 204.157C456.068 204.263 456.095 204.371 456.12 204.479ZM449.11 204.394H420.406V204.395H449.11V204.394ZM367.877 199.778C367.766 199.934 367.654 200.088 367.538 200.238V200.239C367.654 200.089 367.766 199.934 367.877 199.778ZM456.009 204.03C456 203.995 455.989 203.961 455.98 203.926C455.989 203.961 456 203.995 456.009 204.03ZM449.261 203.628C449.281 203.704 449.298 203.774 449.315 203.837C449.298 203.774 449.281 203.704 449.261 203.628ZM449.164 203.188C449.171 203.226 449.176 203.265 449.184 203.302C449.176 203.265 449.171 203.226 449.164 203.188ZM86.925 202.952C86.9199 202.996 86.9162 203.039 86.9123 203.078C86.9162 203.039 86.9199 202.996 86.925 202.952ZM87.011 202.325C86.9929 202.446 86.9786 202.56 86.9641 202.667C86.9786 202.56 86.9929 202.446 87.011 202.325ZM87.3323 200.342C87.2644 200.748 87.1994 201.162 87.136 201.551C87.1994 201.162 87.2644 200.748 87.3323 200.342ZM434.663 165.233C434.071 168.274 433.209 171.614 432.364 174.56L432.332 174.668L432.292 174.773C429.682 181.788 427.146 188.873 425.631 196.162L425.596 196.332L425.54 196.497L424.383 199.949C424.378 200.192 424.367 200.46 424.332 200.734C424.301 200.986 424.254 201.224 424.197 201.456H445.55C445.369 201.005 445.178 200.531 444.977 200.023C444.492 198.802 443.969 197.409 443.652 196.021L443.07 193.739C441.713 188.503 440.33 183.727 438.746 178.546C437.317 174.277 435.867 169.787 434.663 165.233ZM421.292 200.944C421.303 200.907 421.313 200.872 421.322 200.837C421.313 200.872 421.303 200.907 421.292 200.944ZM421.422 200.317C421.426 200.286 421.428 200.255 421.431 200.223C421.428 200.255 421.426 200.286 421.422 200.317ZM293.386 198.431H293.385H293.386ZM350.804 198.646C350.869 198.754 350.934 198.861 351 198.967C350.934 198.861 350.869 198.754 350.804 198.646ZM452.632 195.443C452.992 196.619 453.375 197.776 453.794 198.905C453.375 197.776 452.992 196.619 452.632 195.443ZM301.879 197.321C301.697 197.659 301.509 197.994 301.318 198.327C301.509 197.994 301.697 197.659 301.879 197.321ZM303.423 194.164C303.207 194.656 302.98 195.149 302.742 195.64C302.98 195.149 303.207 194.656 303.423 194.164ZM120.294 156.609C118.729 157.908 116.38 159.207 115.075 160.765C107.162 171.335 100.249 182.237 95.7893 194.657C96.9312 191.477 98.2317 188.396 99.6711 185.396C100.111 184.477 100.564 183.567 101.03 182.663C104.983 174.983 109.809 167.801 115.076 160.765C116.381 159.206 118.73 157.908 120.295 156.609C120.337 156.575 120.377 156.54 120.419 156.506C120.377 156.54 120.336 156.575 120.294 156.609ZM347.779 191.824C347.768 191.796 347.758 191.769 347.747 191.741C347.758 191.769 347.768 191.796 347.779 191.824ZM297.165 192.478H297.166H297.165ZM346.694 188.988C346.954 189.63 347.209 190.304 347.468 190.996C347.209 190.304 346.954 189.63 346.694 188.988ZM372.727 188.988C372.466 189.63 372.211 190.304 371.952 190.996C372.211 190.304 372.466 189.631 372.727 188.989V188.988ZM380.895 185.73C380.725 186.057 380.553 186.381 380.378 186.701C380.553 186.381 380.725 186.057 380.895 185.73ZM449.503 182.796C449.699 183.679 449.896 184.565 450.094 185.452C449.896 184.565 449.699 183.679 449.503 182.796ZM381.47 184.588C381.505 184.516 381.542 184.444 381.577 184.372C381.542 184.444 381.505 184.516 381.47 184.588ZM381.767 183.977C381.804 183.899 381.84 183.821 381.877 183.743C381.84 183.821 381.804 183.899 381.767 183.977ZM382.54 182.295C382.637 182.079 382.734 181.862 382.829 181.644C382.734 181.862 382.637 182.079 382.54 182.295ZM442.215 179.862L442.216 179.863L442.215 179.862ZM449.228 181.563C449.064 180.833 448.901 180.106 448.734 179.385C448.901 180.106 449.064 180.833 449.228 181.563ZM301.405 179.973C301.346 180.424 301.272 180.867 301.181 181.322C301.272 180.867 301.346 180.424 301.405 179.973ZM232.905 179.927C232.964 180.38 233.038 180.823 233.128 181.278C233.038 180.823 232.964 180.38 232.905 179.927ZM383.078 181.062C383.199 180.779 383.321 180.495 383.44 180.209C383.321 180.495 383.199 180.779 383.078 181.062ZM383.678 179.623C383.798 179.328 383.92 179.033 384.038 178.734C383.92 179.033 383.798 179.328 383.678 179.623ZM384.201 178.317C384.331 177.987 384.462 177.655 384.59 177.32C384.462 177.655 384.331 177.987 384.201 178.317ZM233.046 170.831C232.863 172.596 232.715 174.399 232.715 176.347C232.715 176.736 232.72 177.101 232.729 177.447L232.716 176.347C232.716 174.399 232.863 172.597 233.046 170.831ZM385.599 174.612C385.619 174.556 385.641 174.5 385.661 174.443C385.641 174.5 385.619 174.556 385.599 174.612ZM447.973 176.255C447.922 176.06 447.872 175.865 447.819 175.672C447.872 175.865 447.922 176.06 447.973 176.255ZM447.622 174.991C447.597 174.905 447.572 174.819 447.546 174.732C447.572 174.819 447.597 174.905 447.622 174.991ZM447.378 174.188C447.338 174.06 447.3 173.933 447.259 173.807C447.3 173.933 447.338 174.06 447.378 174.188ZM386.067 173.317C386.13 173.141 386.193 172.965 386.256 172.788C386.193 172.965 386.13 173.141 386.067 173.317ZM447.099 173.317C447.053 173.179 447.008 173.041 446.962 172.903C447.008 173.041 447.053 173.179 447.099 173.317ZM446.768 172.334C446.735 172.239 446.702 172.144 446.669 172.05C446.702 172.144 446.735 172.239 446.768 172.334ZM386.685 171.576C386.713 171.495 386.742 171.413 386.771 171.332C386.742 171.413 386.713 171.495 386.685 171.576ZM446.477 171.502C446.431 171.373 446.386 171.245 446.34 171.116C446.386 171.245 446.431 171.373 446.477 171.502ZM423.843 170.714C423.762 170.964 423.678 171.217 423.59 171.472C423.777 170.927 423.951 170.391 424.102 169.876L423.843 170.714ZM331.464 167.938H331.463H331.464ZM445.477 168.737C445.577 169.012 445.676 169.287 445.776 169.561C445.676 169.287 445.577 169.012 445.477 168.737ZM388.721 165.761C388.285 167.001 387.856 168.226 387.434 169.437C387.856 168.226 388.285 167.001 388.721 165.761ZM233.443 168.456C233.459 168.426 233.476 168.395 233.492 168.365C233.476 168.395 233.459 168.426 233.443 168.456ZM233.659 168.034C233.672 168.008 233.683 167.981 233.696 167.955C233.683 167.981 233.672 168.008 233.659 168.034ZM233.838 167.625C233.847 167.602 233.856 167.578 233.865 167.555C233.856 167.578 233.847 167.602 233.838 167.625ZM234.004 167.159C233.992 167.197 233.98 167.235 233.967 167.272C233.98 167.235 233.992 167.197 234.004 167.159ZM305.698 162.935C305.947 164.073 306.007 165.333 306.143 166.648C306.007 165.333 305.946 164.073 305.698 162.935ZM234.171 166.476C234.175 166.452 234.18 166.429 234.184 166.405C234.18 166.429 234.175 166.452 234.171 166.476ZM227.941 165.42C227.922 165.651 227.914 165.878 227.916 166.102L227.921 165.764C227.925 165.65 227.931 165.536 227.941 165.42ZM234.229 166.102C234.233 166.062 234.237 166.023 234.241 165.983C234.237 166.023 234.233 166.062 234.229 166.102ZM234.28 165.191C234.28 165.372 234.274 165.548 234.263 165.72C234.264 165.698 234.268 165.677 234.269 165.655L234.28 165.191ZM228.282 163.608L228.283 163.609L228.282 163.608ZM443.642 163.295C443.694 163.476 443.751 163.656 443.805 163.836C443.744 163.636 443.683 163.435 443.624 163.233L443.642 163.295ZM441.412 153.492C441.934 156.089 442.455 158.687 443.108 161.284L443.109 161.283C442.456 158.686 441.934 156.089 441.412 153.492ZM302.82 156.931C303.676 158.399 304.49 159.937 305.256 161.544C305.321 161.69 305.38 161.839 305.434 161.99C305.38 161.838 305.321 161.689 305.256 161.543C305.064 161.141 304.87 160.744 304.672 160.351C303.882 158.778 303.047 157.275 302.169 155.842L302.82 156.931ZM333.78 158.59C334.012 159.138 334.25 159.689 334.503 160.248C334.249 159.689 334.012 159.137 333.78 158.589V158.59ZM385.845 158.107C385.623 158.631 385.401 159.159 385.166 159.691C385.4 159.159 385.623 158.631 385.845 158.107ZM110.379 157.907C110.493 157.729 110.617 157.541 110.748 157.344V157.343C110.617 157.54 110.493 157.729 110.379 157.907ZM324.977 151.148C325.498 152.298 325.996 153.444 326.473 154.585C326.711 155.156 326.945 155.725 327.174 156.293V156.292C326.488 154.588 325.759 152.872 324.977 151.148ZM427.697 155.097V155.098V155.097ZM332.075 154.808C332.26 155.165 332.434 155.522 332.601 155.88C332.434 155.522 332.26 155.165 332.075 154.808ZM386.966 155.575C386.891 155.733 386.816 155.891 386.743 156.049C386.816 155.891 386.891 155.733 386.966 155.575ZM122.777 154.495C122.23 154.973 121.686 155.444 121.144 155.902C121.686 155.444 122.231 154.973 122.777 154.495ZM297.947 149.865C298.445 150.477 298.934 151.105 299.413 151.752C298.934 151.105 298.445 150.477 297.947 149.865ZM249.24 145.851C247.74 146.89 246.251 148.007 244.457 148.818L240.476 153.48L244.458 148.818C246.252 148.007 247.74 146.89 249.24 145.851ZM210.366 152.386C210.226 152.419 210.085 152.44 209.943 152.449L209.796 152.454C209.987 152.454 210.178 152.43 210.366 152.386ZM331.04 152.358C331.046 152.378 331.054 152.398 331.061 152.42C331.041 152.357 331.025 152.303 331.016 152.261L331.04 152.358ZM208.941 152.377C208.985 152.385 209.029 152.391 209.073 152.397C209.029 152.391 208.985 152.385 208.941 152.377ZM210.448 152.365C210.471 152.359 210.494 152.352 210.517 152.346C210.494 152.352 210.471 152.359 210.448 152.365ZM208.663 152.32C208.699 152.329 208.736 152.335 208.772 152.343C208.736 152.335 208.699 152.329 208.663 152.32ZM210.547 152.337C210.583 152.326 210.619 152.313 210.655 152.301C210.619 152.313 210.583 152.326 210.547 152.337ZM208.373 152.245C208.433 152.262 208.492 152.277 208.552 152.292C208.492 152.277 208.433 152.262 208.373 152.245ZM210.886 152.208C210.9 152.202 210.915 152.195 210.929 152.188C210.915 152.195 210.9 152.202 210.886 152.208ZM211.016 152.144C211.077 152.113 211.138 152.081 211.197 152.046C211.138 152.081 211.077 152.113 211.016 152.144ZM207.826 152.061C207.892 152.086 207.959 152.109 208.026 152.133C207.959 152.109 207.892 152.086 207.826 152.061ZM207.556 151.948C207.618 151.975 207.68 152.001 207.742 152.026C207.68 152.001 207.618 151.975 207.556 151.948ZM211.311 151.974C211.357 151.944 211.403 151.914 211.448 151.882C211.403 151.914 211.357 151.944 211.311 151.974ZM207.303 151.832C207.351 151.855 207.399 151.877 207.447 151.899C207.399 151.877 207.351 151.855 207.303 151.832ZM211.574 151.785C211.617 151.752 211.66 151.719 211.7 151.684C211.66 151.719 211.617 151.752 211.574 151.785ZM207.04 151.701C207.073 151.718 207.107 151.735 207.14 151.752C207.107 151.735 207.073 151.718 207.04 151.701ZM206.752 151.545C206.816 151.581 206.88 151.615 206.944 151.649C206.88 151.615 206.816 151.581 206.752 151.545ZM211.796 151.595C211.842 151.552 211.887 151.508 211.931 151.463C211.887 151.508 211.842 151.552 211.796 151.595ZM439.388 144.347C439.572 144.928 439.716 145.48 439.716 145.702C440.042 147 440.336 148.298 440.614 149.597C440.406 148.623 440.188 147.649 439.954 146.675C439.877 146.35 439.798 146.026 439.716 145.701C439.716 145.479 439.572 144.927 439.388 144.347ZM206.522 151.41C206.575 151.442 206.629 151.474 206.683 151.505C206.629 151.474 206.575 151.442 206.522 151.41ZM211.991 151.396C212.041 151.343 212.09 151.289 212.136 151.232C212.09 151.289 212.041 151.343 211.991 151.396ZM206.086 151.134C206.207 151.213 206.326 151.292 206.448 151.366C206.326 151.292 206.207 151.213 206.086 151.134ZM394.874 150.21C394.707 150.569 394.543 150.928 394.381 151.286C394.543 150.928 394.707 150.569 394.874 150.21ZM212.216 151.127C212.252 151.08 212.288 151.033 212.322 150.983C212.288 151.033 212.252 151.08 212.216 151.127ZM205.614 150.811C205.709 150.879 205.806 150.947 205.903 151.013C205.806 150.947 205.709 150.879 205.614 150.811ZM212.394 150.869C212.429 150.812 212.465 150.755 212.497 150.696C212.465 150.755 212.429 150.812 212.394 150.869ZM205.143 150.465C205.22 150.523 205.297 150.582 205.375 150.64C205.297 150.582 205.22 150.523 205.143 150.465ZM212.595 150.509C212.606 150.485 212.616 150.461 212.627 150.438C212.616 150.461 212.606 150.485 212.595 150.509ZM204.562 150.013C204.676 150.104 204.791 150.195 204.906 150.285C204.791 150.195 204.676 150.104 204.562 150.013ZM212.726 150.199C212.741 150.158 212.755 150.117 212.769 150.075C212.755 150.117 212.741 150.158 212.726 150.199ZM212.912 148.751C212.921 148.857 212.927 148.966 212.927 149.078C212.927 149.411 212.875 149.735 212.78 150.042C212.859 149.787 212.908 149.52 212.923 149.247L212.927 149.078C212.927 148.966 212.922 148.857 212.912 148.751ZM212.822 148.216C212.817 148.196 212.813 148.176 212.808 148.156C212.813 148.176 212.817 148.196 212.822 148.216ZM212.75 147.972C212.738 147.936 212.728 147.901 212.715 147.866C212.728 147.901 212.738 147.936 212.75 147.972ZM328.979 146.631C329.08 146.999 329.182 147.374 329.286 147.749C329.182 147.374 329.08 146.999 328.979 146.631ZM212.655 147.723C212.637 147.682 212.622 147.642 212.603 147.603C212.622 147.642 212.637 147.682 212.655 147.723ZM323.336 147.692C323.049 147.116 322.755 146.539 322.453 145.962C322.755 146.539 323.049 147.116 323.336 147.692ZM212.547 147.496C212.52 147.445 212.494 147.393 212.464 147.343C212.494 147.393 212.52 147.445 212.547 147.496ZM212.368 147.193C212.352 147.168 212.335 147.142 212.318 147.117C212.335 147.142 212.352 147.168 212.368 147.193ZM396.98 145.937C396.775 146.328 396.575 146.719 396.377 147.11C396.575 146.719 396.775 146.328 396.98 145.937ZM212.225 146.991C212.195 146.952 212.165 146.912 212.133 146.873C212.165 146.912 212.195 146.952 212.225 146.991ZM212.065 146.792C212.029 146.75 211.993 146.709 211.955 146.668C211.993 146.709 212.029 146.75 212.065 146.792ZM211.833 146.543C211.805 146.515 211.776 146.486 211.747 146.458C211.776 146.486 211.805 146.515 211.833 146.543ZM328.93 146.455C328.86 146.201 328.789 145.951 328.718 145.705C328.789 145.951 328.86 146.201 328.93 146.455ZM211.637 146.355C211.6 146.322 211.562 146.288 211.524 146.255C211.562 146.288 211.6 146.322 211.637 146.355ZM390.665 145.833C390.628 145.963 390.592 146.094 390.555 146.226C390.592 146.094 390.628 145.963 390.665 145.833ZM211.413 146.162C211.372 146.128 211.331 146.094 211.288 146.061C211.331 146.094 211.372 146.128 211.413 146.162ZM211.159 145.962C211.12 145.933 211.081 145.903 211.041 145.874C211.081 145.903 211.12 145.933 211.159 145.962ZM210.93 145.795C210.878 145.758 210.825 145.722 210.772 145.686C210.825 145.722 210.878 145.758 210.93 145.795ZM210.692 145.633C210.545 145.536 210.395 145.44 210.241 145.347C210.395 145.44 210.545 145.536 210.692 145.633ZM397.549 144.863C397.433 145.079 397.318 145.295 397.204 145.511C397.318 145.295 397.433 145.079 397.549 144.863ZM283.714 144.946H283.715H283.714ZM328.398 144.663C328.447 144.809 328.495 144.958 328.542 145.109L328.398 144.663C328.35 144.537 328.303 144.417 328.255 144.304C328.303 144.417 328.35 144.537 328.398 144.663ZM209.967 145.184C209.869 145.126 209.771 145.067 209.671 145.01C209.771 145.067 209.869 145.126 209.967 145.184ZM391.165 144.304C391.148 144.344 391.133 144.385 391.116 144.427C391.133 144.385 391.148 144.344 391.165 144.304ZM253.884 143.4C253.264 143.636 252.644 143.884 252.025 144.144L252.954 143.764C253.264 143.64 253.574 143.518 253.884 143.4ZM281.364 143.764V143.763V143.764ZM328.185 144.144C328.16 144.088 328.136 144.033 328.112 143.979C328.136 144.033 328.16 144.088 328.185 144.144ZM391.308 143.979C391.283 144.033 391.26 144.088 391.236 144.144C391.26 144.088 391.283 144.033 391.308 143.979ZM207.249 143.561C207.482 143.724 207.726 143.879 207.974 144.03C207.726 143.879 207.482 143.724 207.249 143.561ZM328.051 143.854C328.022 143.794 327.994 143.735 327.965 143.678C327.994 143.735 328.022 143.794 328.051 143.854ZM391.455 143.678C391.426 143.735 391.397 143.793 391.368 143.854C391.397 143.793 391.426 143.735 391.455 143.678ZM399.375 141.632C398.961 142.33 398.561 143.03 398.172 143.729C398.561 143.03 398.961 142.33 399.375 141.632ZM139.604 143.624L139.97 143.597C139.972 143.597 139.973 143.596 139.975 143.596C139.851 143.607 139.728 143.616 139.604 143.624ZM140.114 143.582C140.202 143.574 140.288 143.565 140.375 143.555C140.288 143.565 140.202 143.574 140.114 143.582ZM327.897 143.548C327.872 143.501 327.847 143.455 327.822 143.41C327.847 143.455 327.872 143.501 327.897 143.548ZM391.598 143.41C391.573 143.455 391.549 143.501 391.524 143.548C391.548 143.501 391.573 143.455 391.598 143.41ZM140.461 143.544C140.549 143.533 140.638 143.523 140.726 143.511C140.638 143.523 140.549 143.533 140.461 143.544ZM140.912 143.484C140.975 143.475 141.037 143.465 141.1 143.455C141.037 143.465 140.975 143.475 140.912 143.484ZM319.526 140.768C319.428 140.54 319.33 140.325 319.233 140.119C319.33 140.325 319.428 140.54 319.526 140.768C319.876 141.344 320.218 141.92 320.551 142.497C320.218 141.92 319.876 141.344 319.526 140.768ZM141.694 143.351C141.746 143.34 141.799 143.331 141.852 143.32C141.799 143.331 141.746 143.34 141.694 143.351ZM206.766 143.197C206.687 143.133 206.609 143.069 206.533 143.002C206.609 143.069 206.687 143.133 206.766 143.197ZM327.739 143.264C327.715 143.222 327.691 143.182 327.667 143.142C327.691 143.182 327.715 143.222 327.739 143.264ZM142.147 143.257C142.3 143.224 142.452 143.191 142.605 143.155C142.452 143.191 142.3 143.224 142.147 143.257ZM391.728 143.182C391.722 143.192 391.717 143.202 391.711 143.212C391.717 143.202 391.722 143.192 391.728 143.182ZM142.946 143.071C143.073 143.039 143.2 143.008 143.326 142.975C143.2 143.008 143.073 143.039 142.946 143.071ZM327.585 143.006C327.571 142.983 327.557 142.962 327.543 142.939C327.557 142.962 327.571 142.983 327.585 143.006ZM143.705 142.87C143.83 142.835 143.956 142.8 144.08 142.764C143.956 142.8 143.83 142.835 143.705 142.87ZM144.38 142.675C144.553 142.623 144.727 142.571 144.9 142.517C144.727 142.571 144.553 142.623 144.38 142.675ZM327.05 142.171C327.156 142.336 327.258 142.495 327.361 142.652C327.258 142.495 327.156 142.336 327.05 142.171ZM202.803 140.689C203.874 141.22 204.904 141.765 205.882 142.325C205.972 142.437 206.068 142.543 206.167 142.647C206.14 142.619 206.112 142.592 206.086 142.563L205.882 142.325C204.904 141.765 203.874 141.22 202.803 140.689ZM392.284 142.306C392.223 142.4 392.164 142.493 392.104 142.585C392.164 142.493 392.223 142.4 392.284 142.306ZM145.031 142.475C145.193 142.424 145.355 142.373 145.517 142.32C145.355 142.373 145.193 142.424 145.031 142.475ZM147.404 141.697C147.081 141.804 146.758 141.91 146.434 142.018C146.758 141.91 147.081 141.804 147.404 141.697ZM438.494 141.407C438.506 141.527 438.516 141.645 438.53 141.76C438.516 141.645 438.506 141.527 438.494 141.407ZM326.157 140.578C326.1 140.455 326.041 140.326 325.982 140.189L325.788 139.729L325.981 140.189C326.04 140.326 326.1 140.455 326.157 140.578ZM438.415 140.483C438.411 140.433 438.406 140.383 438.402 140.332C438.406 140.383 438.411 140.433 438.415 140.483ZM438.386 140.162C438.374 140.039 438.361 139.916 438.347 139.794C438.361 139.916 438.374 140.039 438.386 140.162ZM133.428 139.586C133.151 139.714 132.873 139.847 132.594 139.984C132.873 139.847 133.151 139.714 133.428 139.586ZM438.328 139.653C438.315 139.553 438.301 139.454 438.285 139.355C438.301 139.454 438.315 139.553 438.328 139.653ZM199.471 139.149V139.148V139.149ZM438.213 138.958C438.207 138.93 438.201 138.901 438.195 138.873C438.201 138.901 438.207 138.93 438.213 138.958ZM135.097 138.796C135.063 138.812 135.032 138.826 135.006 138.842C135.032 138.826 135.063 138.812 135.097 138.796ZM438.172 138.778C438.159 138.725 438.145 138.673 438.13 138.621C438.145 138.673 438.159 138.725 438.172 138.778ZM438.116 138.571C438.101 138.517 438.084 138.463 438.067 138.41C438.084 138.463 438.101 138.517 438.116 138.571ZM136.999 138.255C136.651 138.326 136.191 138.437 135.79 138.553C136.191 138.437 136.651 138.326 136.999 138.255ZM438.038 138.326C438.027 138.294 438.015 138.263 438.003 138.231C438.015 138.263 438.027 138.294 438.038 138.326ZM137.517 138.17L137.516 138.171L137.517 138.17ZM437.955 138.113C437.943 138.084 437.93 138.056 437.917 138.027C437.93 138.056 437.943 138.084 437.955 138.113ZM437.865 137.918C437.846 137.88 437.826 137.843 437.806 137.807C437.826 137.843 437.846 137.88 437.865 137.918ZM437.764 137.733C437.74 137.693 437.715 137.655 437.689 137.616C437.715 137.655 437.74 137.693 437.764 137.733ZM437.652 137.562C437.626 137.526 437.599 137.491 437.572 137.457C437.599 137.491 437.626 137.526 437.652 137.562ZM437.515 137.389C437.492 137.363 437.468 137.338 437.445 137.313C437.468 137.338 437.492 137.363 437.515 137.389ZM437.37 137.237C437.336 137.205 437.299 137.174 437.262 137.144C437.299 137.174 437.336 137.205 437.37 137.237ZM437.213 137.103C437.177 137.075 437.139 137.05 437.101 137.024C437.139 137.05 437.177 137.075 437.213 137.103ZM437.03 136.977C436.99 136.952 436.947 136.931 436.905 136.908C436.947 136.931 436.99 136.952 437.03 136.977ZM436.833 136.87C436.791 136.85 436.746 136.833 436.701 136.814C436.746 136.833 436.791 136.85 436.833 136.87ZM436.617 136.779C436.563 136.76 436.506 136.744 436.447 136.728C436.506 136.744 436.563 136.76 436.617 136.779ZM436.383 136.708C436.333 136.695 436.281 136.686 436.228 136.676C436.281 136.686 436.333 136.695 436.383 136.708ZM322.918 134.016C323.244 134.34 323.555 134.794 323.844 135.31L323.623 134.936C323.399 134.575 323.163 134.258 322.918 134.015C322.872 133.954 322.823 133.898 322.774 133.846C322.823 133.898 322.872 133.954 322.918 134.016ZM396.639 133.852C396.592 133.902 396.546 133.956 396.502 134.015C396.176 134.339 395.866 134.794 395.576 135.31L395.798 134.936C396.023 134.575 396.258 134.259 396.502 134.016C396.546 133.957 396.592 133.902 396.639 133.852ZM317.6 134.303V134.302V134.303ZM401.777 134.14L401.778 134.141L401.777 134.14ZM322.744 133.815C322.706 133.777 322.667 133.741 322.627 133.707C322.667 133.741 322.706 133.777 322.744 133.815ZM396.79 133.708C396.754 133.739 396.719 133.772 396.685 133.807C396.719 133.772 396.754 133.739 396.79 133.708ZM322.259 133.463C322.372 133.519 322.48 133.588 322.583 133.67C322.48 133.588 322.372 133.519 322.259 133.463ZM397.155 133.466C397.044 133.522 396.937 133.589 396.836 133.67C396.937 133.589 397.044 133.522 397.155 133.466ZM322.217 133.442C322.174 133.422 322.13 133.404 322.086 133.387C322.13 133.404 322.174 133.422 322.217 133.442ZM397.334 133.387C397.293 133.403 397.252 133.42 397.212 133.438C397.252 133.42 397.293 133.403 397.334 133.387ZM397.744 133.271C397.621 133.294 397.5 133.326 397.382 133.368C397.5 133.326 397.621 133.294 397.744 133.271ZM321.691 133.274C321.807 133.297 321.921 133.327 322.031 133.366C321.921 133.327 321.807 133.297 321.691 133.274ZM397.901 133.246C397.869 133.25 397.837 133.254 397.805 133.26C397.837 133.254 397.869 133.251 397.901 133.246ZM321.603 133.258C321.575 133.253 321.547 133.25 321.519 133.246C321.547 133.25 321.575 133.253 321.603 133.258ZM398.451 133.209C398.855 133.204 399.261 133.236 399.633 133.236H399.634L398.815 133.212C398.694 133.208 398.573 133.208 398.451 133.209ZM320.607 133.212C320.727 133.208 320.848 133.208 320.969 133.209C320.848 133.208 320.727 133.208 320.607 133.212ZM166.335 132.067C166.042 132.146 165.697 132.248 165.357 132.35C165.697 132.248 166.042 132.146 166.335 132.067ZM166.649 131.992C166.565 132.011 166.473 132.031 166.375 132.057C166.473 132.031 166.565 132.011 166.649 131.992ZM166.864 131.95C166.828 131.955 166.789 131.961 166.748 131.969C166.789 131.961 166.828 131.955 166.864 131.95ZM362.598 311.071C362.607 311.04 362.617 311.005 362.626 310.969C362.617 311.005 362.607 311.04 362.598 311.071ZM272.971 310.267C273.003 310.198 273.035 310.129 273.064 310.059C273.035 310.129 273.003 310.198 272.971 310.267ZM261.492 309.095C261.506 309.168 261.52 309.241 261.536 309.313C261.52 309.241 261.506 309.168 261.492 309.095ZM273.241 309.55C273.262 309.48 273.28 309.409 273.297 309.338C273.28 309.409 273.262 309.48 273.241 309.55ZM394.721 305.097C394.672 305.213 394.62 305.333 394.57 305.463C394.62 305.333 394.672 305.213 394.721 305.097ZM208.003 294.476C208.011 294.453 208.018 294.43 208.026 294.407C208.018 294.43 208.011 294.453 208.003 294.476ZM208.149 293.963C208.16 293.911 208.17 293.858 208.179 293.806C208.17 293.858 208.16 293.911 208.149 293.963ZM474.535 278.54C474.501 278.381 474.467 278.223 474.432 278.064C474.467 278.223 474.501 278.381 474.535 278.54ZM99.5285 270.655C99.5897 270.782 99.6506 270.908 99.7151 271.032C99.6506 270.908 99.5897 270.782 99.5285 270.655ZM96.7893 264.332C96.8416 264.392 96.8883 264.447 96.9299 264.493C96.8882 264.447 96.8416 264.392 96.7893 264.332ZM209.319 265.631C209.335 265.292 209.351 264.954 209.366 264.615C209.351 264.954 209.335 265.292 209.319 265.631ZM404.039 244.917C403.972 245.101 403.905 245.287 403.839 245.474C403.905 245.287 403.972 245.101 404.039 244.917ZM405.971 239.64C406.009 239.52 406.046 239.4 406.082 239.279C406.046 239.4 406.009 239.52 405.971 239.64ZM461.934 228.189C461.952 228.266 461.968 228.339 461.987 228.405C461.968 228.339 461.952 228.266 461.934 228.189ZM461.647 226.385L461.679 226.688C461.69 226.775 461.702 226.871 461.716 226.972C461.684 226.736 461.66 226.528 461.647 226.385ZM460.653 223.673C460.677 223.742 460.699 223.804 460.72 223.859C460.699 223.804 460.677 223.742 460.653 223.673ZM213.893 218.945C213.904 218.924 213.914 218.902 213.923 218.88C213.914 218.902 213.904 218.924 213.893 218.945ZM351.296 199.423C351.339 199.487 351.383 199.552 351.427 199.615C351.383 199.552 351.339 199.487 351.296 199.423ZM213.971 217.639C213.971 217.542 213.966 217.445 213.958 217.351C213.966 217.445 213.971 217.542 213.971 217.639ZM176.579 216.816C176.567 216.841 176.555 216.866 176.544 216.892C176.555 216.866 176.567 216.841 176.579 216.816ZM176.579 216.816C176.587 216.801 176.593 216.786 176.601 216.771C176.593 216.786 176.587 216.801 176.579 216.816ZM456.871 209.298C456.83 208.958 456.786 208.603 456.741 208.238C456.786 208.603 456.83 208.958 456.871 209.298ZM456.433 206.064C456.399 205.859 456.364 205.654 456.325 205.45C456.364 205.654 456.399 205.859 456.433 206.064ZM350.658 198.398C350.706 198.481 350.755 198.564 350.804 198.646C350.755 198.564 350.706 198.481 350.658 198.398ZM350.001 197.17C350.079 197.324 350.155 197.479 350.236 197.631C350.155 197.479 350.079 197.324 350.001 197.17ZM378.408 189.987C378.395 190.007 378.382 190.027 378.369 190.047C378.382 190.027 378.395 190.007 378.408 189.987ZM381.113 185.305C381.158 185.216 381.202 185.126 381.247 185.037C381.202 185.126 381.158 185.216 381.113 185.305ZM384.78 176.819C384.909 176.478 385.038 176.134 385.166 175.789C385.038 176.134 384.909 176.478 384.78 176.819ZM208.103 152.16C208.186 152.188 208.27 152.215 208.355 152.239C208.27 152.215 208.186 152.188 208.103 152.16ZM203.704 149.316C203.953 149.521 204.205 149.728 204.461 149.934C204.205 149.728 203.953 149.521 203.704 149.316ZM212.891 148.587C212.885 148.54 212.881 148.492 212.873 148.446C212.881 148.492 212.885 148.54 212.891 148.587ZM397.9 144.218C397.782 144.433 397.665 144.648 397.549 144.863C397.665 144.648 397.782 144.433 397.9 144.218ZM326.504 141.261C326.543 141.333 326.583 141.402 326.621 141.47C326.583 141.402 326.543 141.333 326.504 141.261Z" fill="#7D4E27"/>
</svg>
